<svg width="24" height="24" viewBox="0 0 24 24" fill="none" xmlns="http://www.w3.org/2000/svg">
<g clip-path="url(#clip0_3236_6706)">
<path fill-rule="evenodd" clip-rule="evenodd" d="M12 0.5C12.2761 0.5 12.5 0.723858 12.5 1V5.06718C13.0545 5.15372 13.5266 5.38656 13.8833 5.74077C14.2228 6.07786 14.4374 6.50472 14.5258 6.97059H14.5264H14.5383H14.5503H14.5622H14.5742H14.5861H14.5981H14.6101H14.6221H14.6341H14.6461H14.6581H14.6701H14.6821H14.6942H14.7062H14.7182H14.7303H14.7423H14.7544H14.7665H14.7785H14.7906H14.8027H14.8148H14.8268H14.8389H14.851H14.8631H14.8752H14.8873H14.8995H14.9116H14.9237H14.9358H14.9479H14.9601H14.9722H14.9843H14.9965H15.0086H15.0208H15.0329H15.0451H15.0572H15.0694H15.0816H15.0937H15.1059H15.118H15.1302H15.1424H15.1546H15.1667H15.1789H15.1911H15.2033H15.2154H15.2276H15.2398H15.252H15.2642H15.2764H15.2886H15.3007H15.3129H15.3251H15.3373H15.3495H15.3617H15.3739H15.3861H15.3982H15.4104H15.4226H15.4348H15.447H15.4592H15.4713H15.4835H15.4957H15.5079H15.5201H15.5322H15.5444H15.5566H15.5688H15.5809H15.5931H15.6053H15.6174H15.6296H15.6417H15.6539H15.666H15.6782H15.6903H15.7025H15.7146H15.7268H15.7389H15.751H15.7631H15.7753H15.7874H15.7995H15.8116H15.8237H15.8358H15.8479H15.86H15.8721H15.8842H15.8963H15.9083H15.9204H15.9325H15.9445H15.9566H15.9686H15.9807H15.9927H16.0047H16.0168H16.0288H16.0408H16.0528H16.0648H16.0768H16.0888H16.1008H16.1128H16.1247H16.1367H16.1486H16.1606H16.1725H16.1845H16.1964H16.2083H16.2202H16.2321H16.244H16.2559H16.2678H16.2796H16.2915H16.3033H16.3152H16.327H16.3389H16.3507H16.3625H16.3743H16.3861H16.3979H16.4096H16.4214H16.4331H16.4449H16.4566H16.4683H16.4801H16.4918H16.5034H16.5151H16.5268H16.5385H16.5501H16.5617H16.5734H16.585H16.5966H16.6082H16.6198H16.6314H16.6429H16.6545H16.666H16.6775H16.689H16.7005H16.712H16.7235H16.735H16.7464H16.7579H16.7693H16.7807H16.7921H16.8035H16.8148H16.8262H16.8376H16.8489H16.8602H16.8715H16.8828H16.8941H16.9053H16.9166H16.9278H16.9391H16.9503H16.9615H16.9726H16.9838H16.9949H17.0061H17.0172H17.0283H17.0394H17.0504H17.0615H17.0725H17.0836H17.0946H17.1056H17.1165H17.1275H17.1384H17.1494H17.1603H17.1712H17.182H17.1929H17.2038H17.2146H17.2254H17.2362H17.2469H17.2577H17.2684H17.2792H17.2899H17.3006H17.3112H17.3219H17.3325H17.3431H17.3537H17.3643H17.3748H17.3854H17.3959H17.4064H17.4169H17.4273H17.4378H17.4482H17.4586H17.469H17.4793H17.4897H17.5C18.7139 6.97059 20.1971 7.44074 21.3836 8.37128C22.583 9.31198 23.5 10.7426 23.5 12.6471V12.6672V12.6874V12.7075V12.7275V12.7474V12.7673V12.7872V12.8069V12.8267V12.8463V12.8659V12.8855V12.905V12.9244V12.9438V12.9631V12.9824V13.0016V13.0207V13.0398V13.0589V13.0779V13.0968V13.1157V13.1345V13.1533V13.172V13.1906V13.2092V13.2278V13.2462V13.2647V13.2831V13.3014V13.3197V13.3379V13.3561V13.3742V13.3922V13.4102V13.4282V13.4461V13.4639V13.4817V13.4995V13.5172V13.5348V13.5524V13.57V13.5875V13.6049V13.6223V13.6396V13.6569V13.6741V13.6913V13.7085V13.7255V13.7426V13.7596V13.7765V13.7934V13.8102V13.827V13.8438V13.8604V13.8771V13.8937V13.9102V13.9267V13.9432V13.9596V13.9759V13.9923V14.0085V14.0247V14.0409V14.057V14.0731V14.0891V14.1051V14.121V14.1369V14.1528V14.1686V14.1843V14.2V14.2157V14.2313V14.2469V14.2624V14.2779V14.2934V14.3088V14.3241V14.3394V14.3547V14.3699V14.3851V14.4002V14.4153V14.4304V14.4454V14.4604V14.4753V14.4902V14.505V14.5198V14.5346V14.5493V14.564V14.5786V14.5932V14.6077V14.6223V14.6367V14.6512V14.6655V14.6799V14.6942V14.7085V14.7227V14.7369V14.7511V14.7652V14.7793V14.7933V14.8073V14.8213V14.8352V14.8491V14.8629V14.8767V14.8905V14.9042V14.9179V14.9316V14.9452V14.9588V14.9724V14.9859V14.9993V15.0128V15.0262V15.0396V15.0529V15.0662V15.0795V15.0927V15.1059V15.1191V15.1322V15.1453V15.1583V15.1714V15.1844V15.1973V15.2102V15.2231V15.236V15.2488V15.2616V15.2744V15.2871V15.2998V15.3124V15.3251V15.3377V15.3502V15.3628V15.3753V15.3877V15.4002V15.4126V15.425V15.4373V15.4496V15.4619V15.4742V15.4864V15.4986V15.5108V15.5229V15.535V15.5471V15.5591V15.5712V15.5832V15.5951V15.6071V15.619V15.6309V15.6427V15.6545V15.6663V15.6781V15.6899V15.7016V15.7133V15.7249V15.7366V15.7482V15.7598V15.7713V15.7829V15.7944V15.8058V15.8173V15.8287V15.8401V15.8515V15.8629V15.8742V15.8855V15.8968V15.9081V15.9193V15.9305V15.9417V15.9529V15.964V15.9751V15.9862V15.9973V16.0084V16.0194V16.0304V16.0414V16.0523V16.0633V16.0742V16.0851V16.096V16.1068V16.1177V16.1285V16.1393V16.1501V16.1608V16.1715V16.1823V16.193V16.2036V16.2143V16.2249V16.2355V16.2461V16.2567V16.2673V16.2778V16.2883V16.2988V16.3093V16.3198V16.3303V16.3407V16.3511V16.3615V16.3719V16.3823V16.3926V16.4029V16.4133V16.4236V16.4338V16.4441V16.4544V16.4646V16.4748V16.485V16.4952V16.5054V16.5156V16.5257V16.5359V16.546V16.5561V16.5662V16.5763V16.5863V16.5964V16.6064V16.6164V16.6264V16.6364V16.6464V16.6564V16.6664V16.6763V16.6863V16.6962V16.7061V16.716V16.7259V16.7358V16.7457V16.7555V16.7654V16.7752V16.785V16.7949V16.8047V16.8145V16.8243V16.834V16.8438V16.8536V16.8633V16.8731V16.8828V16.8925V16.9023V16.912V16.9217V16.9314V16.9411V16.9507V16.9604V16.9701V16.9797V16.9894V16.999V17.0087V17.0183V17.0279V17.0376V17.0472V17.0568V17.0664V17.076V17.0856V17.0952V17.1048V17.1143V17.1239V17.1335V17.143V17.1526V17.1622V17.1717V17.1813V17.1908V17.2004V17.2099V17.2194V17.229V17.2385V17.2481V17.2576V17.2671V17.2766V17.2862V17.2957V17.3052V17.3147V17.3242V17.3338V17.3433V17.3528V17.3623V17.3718V17.3813V17.3909V17.4004V17.4099V17.4194V17.4289V17.4384V17.448V17.4575V17.467V17.4765V17.486V17.4956V17.5051V17.5146V17.5242V17.5337V17.5432V17.5528V17.5623V17.5719V17.5814V17.591V17.6006V17.6101V17.6197V17.6293V17.6388V17.6484V17.658V17.6676V17.6772V17.6868V17.6964V17.706V17.7156V17.7252V17.7349V17.7445V17.7541V17.7638V17.7734V17.7831V17.7928V17.8024V17.8121V17.8218V17.8315V17.8412V17.8509V17.8607V17.8704V17.8801V17.8899V17.8996V17.9094V17.9192V17.9289V17.9387V17.9485V17.9583V17.9682V17.978V17.9878V17.9977V18.0076V18.0174V18.0273V18.0372V18.0471V18.057V18.067V18.0769V18.0869V18.0968V18.1068V18.1168V18.1268V18.1368V18.1468V18.1569V18.1669V18.177V18.1871V18.1972V18.2073V18.2174V18.2275V18.2377V18.2479V18.258V18.2682V18.2785V18.2887V18.2989V18.3092V18.3194V18.3297V18.34V18.3504V18.3607V18.371V18.3814V18.3918V18.4022V18.4126V18.4231V18.4335V18.444V18.4545V18.465V18.4755V18.4861V18.4966V18.5072V18.5178V18.5284V18.5391V18.5497V18.5604V18.5711V18.5818V18.5926V18.6033V18.6141V18.6249V18.6357V18.6466V18.6574V18.6683V18.6792V18.6901V18.7011V18.712V18.723V18.734V18.7451V18.7561V18.7672V18.7783V18.7894V18.8006V18.8117V18.8229V18.8342V18.8454V18.8567V18.8679V18.8793V18.8906V18.902C23.5 21.0946 21.7602 23.5 18.6 23.5C17.035 23.5 16.0466 22.7943 15.1638 22.1641C15.1399 22.147 15.116 22.13 15.0922 22.113C14.194 21.4725 13.371 20.9118 12 20.9118C10.629 20.9118 9.80603 21.4725 8.90778 22.113C8.88398 22.13 8.86012 22.147 8.83619 22.1641C7.95344 22.7943 6.96502 23.5 5.4 23.5C2.23983 23.5 0.5 21.0946 0.5 18.902V18.8906V18.8793V18.8679V18.8567V18.8454V18.8342V18.8229V18.8117V18.8006V18.7894V18.7783V18.7672V18.7561V18.7451V18.734V18.723V18.712V18.7011V18.6901V18.6792V18.6683V18.6574V18.6466V18.6357V18.6249V18.6141V18.6033V18.5926V18.5818V18.5711V18.5604V18.5497V18.5391V18.5284V18.5178V18.5072V18.4966V18.4861V18.4755V18.465V18.4545V18.444V18.4335V18.4231V18.4126V18.4022V18.3918V18.3814V18.371V18.3607V18.3504V18.34V18.3297V18.3194V18.3092V18.2989V18.2887V18.2785V18.2682V18.258V18.2479V18.2377V18.2275V18.2174V18.2073V18.1972V18.1871V18.177V18.1669V18.1569V18.1468V18.1368V18.1268V18.1168V18.1068V18.0968V18.0869V18.0769V18.067V18.057V18.0471V18.0372V18.0273V18.0174V18.0076V17.9977V17.9878V17.978V17.9682V17.9583V17.9485V17.9387V17.9289V17.9192V17.9094V17.8996V17.8899V17.8801V17.8704V17.8607V17.8509V17.8412V17.8315V17.8218V17.8121V17.8024V17.7928V17.7831V17.7734V17.7638V17.7541V17.7445V17.7349V17.7252V17.7156V17.706V17.6964V17.6868V17.6772V17.6676V17.658V17.6484V17.6388V17.6293V17.6197V17.6101V17.6006V17.591V17.5814V17.5719V17.5623V17.5528V17.5432V17.5337V17.5242V17.5146V17.5051V17.4956V17.486V17.4765V17.467V17.4575V17.448V17.4384V17.4289V17.4194V17.4099V17.4004V17.3909V17.3813V17.3718V17.3623V17.3528V17.3433V17.3338V17.3242V17.3147V17.3052V17.2957V17.2862V17.2766V17.2671V17.2576V17.2481V17.2385V17.229V17.2194V17.2099V17.2004V17.1908V17.1813V17.1717V17.1622V17.1526V17.143V17.1335V17.1239V17.1143V17.1048V17.0952V17.0856V17.076V17.0664V17.0568V17.0472V17.0376V17.0279V17.0183V17.0087V16.999V16.9894V16.9797V16.9701V16.9604V16.9507V16.9411V16.9314V16.9217V16.912V16.9023V16.8925V16.8828V16.8731V16.8633V16.8536V16.8438V16.834V16.8243V16.8145V16.8047V16.7949V16.785V16.7752V16.7654V16.7555V16.7457V16.7358V16.7259V16.716V16.7061V16.6962V16.6863V16.6763V16.6664V16.6564V16.6464V16.6364V16.6264V16.6164V16.6064V16.5964V16.5863V16.5763V16.5662V16.5561V16.546V16.5359V16.5257V16.5156V16.5054V16.4952V16.485V16.4748V16.4646V16.4544V16.4441V16.4338V16.4236V16.4133V16.4029V16.3926V16.3823V16.3719V16.3615V16.3511V16.3407V16.3303V16.3198V16.3093V16.2988V16.2883V16.2778V16.2673V16.2567V16.2461V16.2355V16.2249V16.2143V16.2036V16.193V16.1823V16.1715V16.1608V16.1501V16.1393V16.1285V16.1177V16.1068V16.096V16.0851V16.0742V16.0633V16.0523V16.0414V16.0304V16.0194V16.0084V15.9973V15.9862V15.9751V15.964V15.9529V15.9417V15.9305V15.9193V15.9081V15.8968V15.8855V15.8742V15.8629V15.8515V15.8401V15.8287V15.8173V15.8058V15.7944V15.7829V15.7713V15.7598V15.7482V15.7366V15.7249V15.7133V15.7016V15.6899V15.6781V15.6663V15.6545V15.6427V15.6309V15.619V15.6071V15.5951V15.5832V15.5712V15.5591V15.5471V15.535V15.5229V15.5108V15.4986V15.4864V15.4742V15.4619V15.4496V15.4373V15.425V15.4126V15.4002V15.3877V15.3753V15.3628V15.3502V15.3377V15.3251V15.3124V15.2998V15.2871V15.2744V15.2616V15.2488V15.236V15.2231V15.2102V15.1973V15.1844V15.1714V15.1583V15.1453V15.1322V15.1191V15.1059V15.0927V15.0795V15.0662V15.0529V15.0396V15.0262V15.0128V14.9993V14.9859V14.9724V14.9588V14.9452V14.9316V14.9179V14.9042V14.8905V14.8767V14.8629V14.8491V14.8352V14.8213V14.8073V14.7933V14.7793V14.7652V14.7511V14.7369V14.7227V14.7085V14.6942V14.6799V14.6655V14.6512V14.6367V14.6223V14.6077V14.5932V14.5786V14.564V14.5493V14.5346V14.5198V14.505V14.4902V14.4753V14.4604V14.4454V14.4304V14.4153V14.4002V14.3851V14.3699V14.3547V14.3394V14.3241V14.3088V14.2934V14.2779V14.2624V14.2469V14.2313V14.2157V14.2V14.1843V14.1686V14.1528V14.1369V14.121V14.1051V14.0891V14.0731V14.057V14.0409V14.0247V14.0085V13.9923V13.9759V13.9596V13.9432V13.9267V13.9102V13.8937V13.8771V13.8604V13.8438V13.827V13.8102V13.7934V13.7765V13.7596V13.7426V13.7255V13.7085V13.6913V13.6741V13.6569V13.6396V13.6223V13.6049V13.5875V13.57V13.5524V13.5348V13.5172V13.4995V13.4817V13.4639V13.4461V13.4282V13.4102V13.3922V13.3742V13.3561V13.3379V13.3197V13.3014V13.2831V13.2647V13.2462V13.2278V13.2092V13.1906V13.172V13.1533V13.1345V13.1157V13.0968V13.0779V13.0589V13.0398V13.0207V13.0016V12.9824V12.9631V12.9438V12.9244V12.905V12.8855V12.8659V12.8463V12.8267V12.8069V12.7872V12.7673V12.7474V12.7275V12.7075V12.6874V12.6672V12.6471C0.5 10.7426 1.41704 9.31198 2.61643 8.37128C3.80287 7.44074 5.28611 6.97059 6.5 6.97059H6.5059H6.5118H6.51771H6.52363H6.52955H6.53548H6.54141H6.54736H6.5533H6.55926H6.56522H6.57119H6.57716H6.58314H6.58913H6.59512H6.60112H6.60713H6.61314H6.61916H6.62518H6.63121H6.63725H6.64329H6.64934H6.65539H6.66145H6.66752H6.67359H6.67967H6.68575H6.69184H6.69794H6.70404H6.71015H6.71627H6.72239H6.72851H6.73465H6.74078H6.74693H6.75307H6.75923H6.76539H6.77155H6.77773H6.78391H6.79009H6.79628H6.80247H6.80867H6.81488H6.82109H6.8273H6.83352H6.83975H6.84599H6.85222H6.85847H6.86472H6.87097H6.87723H6.8835H6.88977H6.89604H6.90232H6.90861H6.9149H6.9212H6.9275H6.93381H6.94012H6.94643H6.95276H6.95908H6.96542H6.97175H6.9781H6.98444H6.9908H6.99715H7.00352H7.00988H7.01626H7.02263H7.02901H7.0354H7.04179H7.04819H7.05459H7.061H7.06741H7.07382H7.08024H7.08667H7.0931H7.09953H7.10597H7.11242H7.11886H7.12531H7.13177H7.13823H7.1447H7.15117H7.15765H7.16413H7.17061H7.1771H7.18359H7.19009H7.19659H7.20309H7.2096H7.21612H7.22264H7.22916H7.23569H7.24222H7.24875H7.25529H7.26184H7.26838H7.27493H7.28149H7.28805H7.29461H7.30118H7.30775H7.31433H7.32091H7.32749H7.33408H7.34067H7.34727H7.35387H7.36047H7.36708H7.37369H7.3803H7.38692H7.39354H7.40017H7.4068H7.41343H7.42007H7.42671H7.43335H7.44H7.44665H7.45331H7.45996H7.46663H7.47329H7.47996H7.48663H7.49331H7.49999H7.50667H7.51336H7.52004H7.52674H7.53343H7.54013H7.54683H7.55354H7.56025H7.56696H7.57368H7.58039H7.58711H7.59384H7.60057H7.6073H7.61403H7.62077H7.62751H7.63425H7.641H7.64775H7.6545H7.66125H7.66801H7.67477H7.68153H7.6883H7.69507H7.70184H7.70862H7.71539H7.72217H7.72896H7.73574H7.74253H7.74932H7.75611H7.76291H7.76971H7.77651H7.78331H7.79012H7.79693H7.80374H7.81055H7.81737H7.82419H7.83101H7.83784H7.84466H7.85149H7.85832H7.86515H7.87199H7.87883H7.88567H7.89251H7.89935H7.9062H7.91305H7.9199H7.92675H7.93361H7.94046H7.94732H7.95418H7.96105H7.96791H7.97478H7.98165H7.98852H7.99539H8.00227H8.00915H8.01603H8.02291H8.02979H8.03667H8.04356H8.05045H8.05734H8.06423H8.07112H8.07802H8.08491H8.09181H8.09871H8.10561H8.11252H8.11942H8.12633H8.13323H8.14014H8.14705H8.15397H8.16088H8.1678H8.17471H8.18163H8.18855H8.19547H8.20239H8.20931H8.21624H8.22316H8.23009H8.23702H8.24395H8.25088H8.25781H8.26474H8.27168H8.27861H8.28555H8.29249H8.29943H8.30636H8.3133H8.32025H8.32719H8.33413H8.34108H8.34802H8.35497H8.36191H8.36886H8.37581H8.38276H8.38971H8.39666H8.40361H8.41056H8.41752H8.42447H8.43143H8.43838H8.44534H8.45229H8.45925H8.46621H8.47316H8.48012H8.48708H8.49404H8.501H8.50796H8.51492H8.52188H8.52884H8.53581H8.54277H8.54973H8.55669H8.56366H8.57062H8.57758H8.58455H8.59151H8.59848H8.60544H8.61241H8.61937H8.62634H8.6333H8.64026H8.64723H8.65419H8.66116H8.66812H8.67509H8.68205H8.68902H8.69598H8.70295H8.70991H8.71688H8.72384H8.7308H8.73777H8.74473H8.75169H8.75866H8.76562H8.77258H8.77954H8.7865H8.79346H8.80042H8.80738H8.81434H8.8213H8.82826H8.83522H8.84218H8.84914H8.85609H8.86305H8.87H8.87696H8.88391H8.89087H8.89782H8.90477H8.91172H8.91867H8.92562H8.93257H8.93952H8.94647H8.95341H8.96036H8.9673H8.97425H8.98119H8.98813H8.99507H9.00201H9.00895H9.01589H9.02283H9.02976H9.0367H9.04363H9.05056H9.05749H9.06442H9.07135H9.07828H9.08521H9.09213H9.09906H9.10598H9.1129H9.11982H9.12674H9.13366H9.14057H9.14749H9.1544H9.16131H9.16822H9.17513H9.18204H9.18894H9.19585H9.20275H9.20965H9.21655H9.22345H9.23034H9.23724H9.24413H9.25102H9.25791H9.2648H9.27168H9.27856H9.28545H9.29233H9.2992H9.30608H9.31295H9.31983H9.3267H9.33357H9.34043H9.3473H9.35416H9.36102H9.36788H9.37474H9.38159H9.38844H9.39529H9.40214H9.40899H9.41583H9.42267H9.42951H9.43635H9.44318H9.45001H9.45684H9.46367H9.47049H9.47422C9.56255 6.50472 9.77717 6.07786 10.1167 5.74077C10.4734 5.38656 10.9455 5.15372 11.5 5.06718V1C11.5 0.723858 11.7239 0.5 12 0.5ZM10.5043 6.97059H10.5055H10.5101H10.5148H10.5194H10.524H10.5287H10.5333H10.5379H10.5425H10.5472H10.5518H10.5564H10.561H10.5656H10.5702H10.5748H10.5794H10.584H10.5886H10.5932H10.5977H10.6023H10.6069H10.6115H10.616H10.6206H10.6252H10.6297H10.6343H10.6388H10.6434H10.6479H10.6525H10.657H10.6615H10.6661H10.6706H10.6751H10.6797H10.6842H10.6887H10.6932H10.6977H10.7022H10.7067H10.7112H10.7157H10.7202H10.7247H10.7292H10.7336H10.7381H10.7426H10.7471H10.7515H10.756H10.7604H10.7649H10.7693H10.7738H10.7782H10.7827H10.7871H10.7915H10.796H10.8004H10.8048H10.8092H10.8137H10.8181H10.8225H10.8269H10.8313H10.8357H10.8401H10.8444H10.8488H10.8532H10.8576H10.862H10.8663H10.8707H10.8751H10.8794H10.8838H10.8881H10.8925H10.8968H10.9011H10.9055H10.9098H10.9141H10.9185H10.9228H10.9271H10.9314H10.9357H10.94H10.9443H10.9486H10.9529H10.9572H10.9615H10.9657H10.97H10.9743H10.9786H10.9828H10.9871H10.9913H10.9956H10.9998H11.0041H11.0083H11.0125H11.0168H11.021H11.0252H11.0294H11.0337H11.0379H11.0421H11.0463H11.0505H11.0547H11.0589H11.063H11.0672H11.0714H11.0756H11.0797H11.0839H11.0881H11.0922H11.0964H11.1005H11.1047H11.1088H11.1129H11.1171H11.1212H11.1253H11.1294H11.1335H11.1376H11.1417H11.1458H11.1499H11.154H11.1581H11.1622H11.1663H11.1703H11.1744H11.1785H11.1825H11.1866H11.1906H11.1947H11.1987H11.2028H11.2068H11.2108H11.2148H11.2189H11.2229H11.2269H11.2309H11.2349H11.2389H11.2429H11.2469H11.2508H11.2548H11.2588H11.2628H11.2667H11.2707H11.2746H11.2786H11.2825H11.2865H11.2904H11.2943H11.2983H11.3022H11.3061H11.31H11.3139H11.3178H11.3217H11.3256H11.3295H11.3334H11.3373H11.3411H11.345H11.3489H11.3527H11.3566H11.3604H11.3643H11.3681H11.372H11.3758H11.3796H11.3834H11.3873H11.3911H11.3949H11.3987H11.4025H11.4063H11.4101H11.4138H11.4176H11.4214H11.4252H11.4289H11.4327H11.4364H11.4402H11.4439H11.4476H11.4514H11.4551H11.4588H11.4625H11.4663H11.47H11.4737H11.4774H11.4811H11.4847H11.4884H11.4921H11.4958H11.4994H11.5031H11.5067H11.5104H11.514H11.5177H11.5213H11.5249H11.5286H11.5322H11.5358H11.5394H11.543H11.5466H11.5502H11.5538H11.5574H11.5609H11.5645H11.5681H11.5716H11.5752H11.5788H11.5823H11.5858H11.5894H11.5929H11.5964H11.5999H11.6035H11.607H11.6105H11.614H11.6174H11.6209H11.6244H11.6279H11.6314H11.6348H11.6383H11.6417H11.6452H11.6486H11.6521H11.6555H11.6589H11.6623H11.6657H11.6692H11.6726H11.676H11.6793H11.6827H11.6861H11.6895H11.6929H11.6962H11.6996H11.7029H11.7063H11.7096H11.713H11.7163H11.7196H11.7229H11.7262H11.7296H11.7329H11.7361H11.7394H11.7427H11.746H11.7493H11.7525H11.7558H11.7591H11.7623H11.7656H11.7688H11.772H11.7752H11.7785H11.7817H11.7849H11.7881H11.7913H11.7945H11.7977H11.8008H11.804H11.8072H11.8104H11.8135H11.8167H11.8198H11.8229H11.8261H11.8292H11.8323H11.8354H11.8385H11.8416H11.8447H11.8478H11.8509H11.854H11.8571H11.8601H11.8632H11.8662H11.8693H11.8723H11.8754H11.8784H11.8814H11.8844H11.8874H11.8905H11.8934H11.8964H11.8994H11.9024H11.9054H11.9083H11.9113H11.9143H11.9172H11.9202H11.9231H11.926H11.929H11.9319H11.9348H11.9377H11.9406H11.9435H11.9464H11.9492H11.9521H11.955H11.9578H11.9607H11.9636H11.9664H11.9692H11.9721H11.9749H11.9777H11.9805H11.9833H11.9861H11.9889H11.9917H11.9945H11.9972H12H12.0065H12.013H12.0195H12.0261H12.0327H12.0393H12.046H12.0527H12.0594H12.0662H12.073H12.0799H12.0867H12.0936H12.1006H12.1076H12.1146H12.1216H12.1287H12.1358H12.143H12.1501H12.1573H12.1646H12.1719H12.1792H12.1865H12.1939H12.2013H12.2087H12.2162H12.2237H12.2312H12.2388H12.2464H12.254H12.2617H12.2694H12.2771H12.2849H12.2926H12.3005H12.3083H12.3162H12.3241H12.332H12.34H12.348H12.356H12.3641H12.3722H12.3803H12.3884H12.3966H12.4048H12.413H12.4213H12.4296H12.4379H12.4463H12.4546H12.4631H12.4715H12.48H12.4885H12.497H12.5055H12.5141H12.5227H12.5313H12.54H12.5487H12.5574H12.5662H12.5749H12.5837H12.5925H12.6014H12.6103H12.6192H12.6281H12.6371H12.6461H12.6551H12.6641H12.6732H12.6823H12.6914H12.7005H12.7097H12.7189H12.7281H12.7373H12.7466H12.7559H12.7652H12.7746H12.7839H12.7933H12.8027H12.8122H12.8216H12.8311H12.8407H12.8502H12.8598H12.8693H12.8789H12.8886H12.8982H12.9079H12.9176H12.9273H12.9371H12.9469H12.9567H12.9665H12.9763H12.9862H12.9961H13.006H13.0159H13.0259H13.0358H13.0458H13.0558H13.0659H13.0759H13.086H13.0961H13.1062H13.1164H13.1266H13.1367H13.147H13.1572H13.1674H13.1777H13.188H13.1983H13.2086H13.219H13.2293H13.2397H13.2501H13.2606H13.271H13.2815H13.292H13.3025H13.313H13.3236H13.3341H13.3447H13.3553H13.3659H13.3765H13.3872H13.3979H13.4086H13.4193H13.43H13.4408H13.4515H13.4623H13.4731H13.4839H13.4947H13.4957C13.429 6.76704 13.3207 6.59132 13.1787 6.45041C12.9325 6.20588 12.5476 6.02941 12 6.02941C11.4524 6.02941 11.0675 6.20588 10.8213 6.45041C10.6793 6.59132 10.571 6.76704 10.5043 6.97059ZM3.23357 9.15813C2.23296 9.94292 1.5 11.1005 1.5 12.6471V12.6672V12.6874V12.7075V12.7275V12.7474V12.7673V12.7872V12.8069V12.8267V12.8463V12.8659V12.8855V12.905V12.9244V12.9438V12.9631V12.9824V13.0016V13.0207V13.0398V13.0589V13.0779V13.0968V13.1157V13.1345V13.1533V13.172V13.1906V13.2092V13.2278V13.2462V13.2647V13.2831V13.3014V13.3197V13.3379V13.3561V13.3742V13.3922V13.4102V13.4282V13.4461V13.4639V13.4817V13.4995V13.5172V13.5348V13.5524V13.57V13.5875V13.6049V13.6223V13.6396V13.6569V13.6741V13.6913V13.7085V13.7255V13.7426V13.7596V13.7765V13.7934V13.8102V13.827V13.8438V13.8604V13.8771V13.8937V13.9102V13.9267V13.9432V13.9596V13.9759V13.9923V14.0085V14.0247V14.0409V14.057V14.0731V14.0891V14.1051V14.121V14.1369V14.1528V14.1686V14.1843V14.2V14.2157V14.2313V14.2469V14.2624V14.2779V14.2934V14.3088V14.3241V14.3394V14.3547V14.3699V14.3851V14.4002V14.4153V14.4304V14.4454V14.4604V14.4753V14.4902V14.505V14.5198V14.5346V14.5493V14.564V14.5786V14.5932V14.6077V14.6223V14.6367V14.6512V14.6655V14.6799V14.6942V14.7085V14.7227V14.7369V14.7511V14.7652V14.7793V14.7933V14.8073V14.8213V14.8352V14.8491V14.8629V14.8767V14.8905V14.9042V14.9179V14.9316V14.9452V14.9588V14.9724V14.9859V14.9993V15.0128V15.0262V15.0396V15.0529V15.0662V15.0795V15.0927V15.1059V15.1191V15.1322V15.1453V15.1583V15.1714V15.1844V15.1973V15.2102V15.2231V15.236V15.2488V15.2616V15.2744V15.2871V15.2998V15.3124V15.3251V15.3377V15.3502V15.3628V15.3753V15.3877V15.4002V15.4126V15.425V15.4373V15.4496V15.4619V15.4742V15.4864V15.4986V15.5108V15.5229V15.535V15.5471V15.5591V15.5712V15.5832V15.5951V15.6071V15.619V15.6309V15.6427V15.6545V15.6663V15.6781V15.6899V15.7016V15.7133V15.7249V15.7366V15.7482V15.7598V15.7713V15.7829V15.7944V15.8058V15.8173V15.8287V15.8401V15.8515V15.8629V15.8742V15.8855V15.8968V15.9081V15.9193V15.9305V15.9417V15.9529V15.964V15.9751V15.9862V15.9973V16.0084V16.0194V16.0304V16.0414V16.0523V16.0633V16.0742V16.0851V16.096V16.1068V16.1177V16.1285V16.1393V16.1501V16.1608V16.1715V16.1823V16.193V16.2036V16.2143V16.2249V16.2355V16.2461V16.2567V16.2673V16.2778V16.2883V16.2988V16.3093V16.3198V16.3303V16.3407V16.3511V16.3615V16.3719V16.3823V16.3926V16.4029V16.4133V16.4236V16.4338V16.4441V16.4544V16.4646V16.4748V16.485V16.4952V16.5054V16.5156V16.5257V16.5359V16.546V16.5561V16.5662V16.5763V16.5863V16.5964V16.6064V16.6164V16.6264V16.6364V16.6464V16.6564V16.6664V16.6763V16.6863V16.6962V16.7061V16.716V16.7259V16.7358V16.7457V16.7555V16.7654V16.7752V16.785V16.7949V16.8047V16.8145V16.8243V16.834V16.8438V16.8536V16.8633V16.8731V16.8828V16.8925V16.9023V16.912V16.9217V16.9314V16.9411V16.9507V16.9604V16.9701V16.9797V16.9894V16.999V17.0087V17.0183V17.0279V17.0376V17.0472V17.0568V17.0664V17.076V17.0856V17.0952V17.1048V17.1143V17.1239V17.1335V17.143V17.1526V17.1622V17.1717V17.1813V17.1908V17.2004V17.2099V17.2194V17.229V17.2385V17.2481V17.2576V17.2671V17.2766V17.2862V17.2957V17.3052V17.3147V17.3242V17.3338V17.3433V17.3528V17.3623V17.3718V17.3813V17.3909V17.4004V17.4099V17.4194V17.4289V17.4384V17.448V17.4575V17.467V17.4765V17.486V17.4956V17.5051V17.5146V17.5242V17.5337V17.5432V17.5528V17.5623V17.5719V17.5814V17.591V17.6006V17.6101V17.6197V17.6293V17.6388V17.6484V17.658V17.6676V17.6772V17.6868V17.6964V17.706V17.7156V17.7252V17.7349V17.7445V17.7541V17.7638V17.7734V17.7831V17.7928V17.8024V17.8121V17.8218V17.8315V17.8412V17.8509V17.8607V17.8704V17.8801V17.8899V17.8996V17.9094V17.9192V17.9289V17.9387V17.9485V17.9583V17.9682V17.978V17.9878V17.9977V18.0076V18.0174V18.0273V18.0372V18.0471V18.057V18.067V18.0769V18.0869V18.0968V18.1068V18.1168V18.1268V18.1368V18.1468V18.1569V18.1669V18.177V18.1871V18.1972V18.2073V18.2174V18.2275V18.2377V18.2479V18.258V18.2682V18.2785V18.2887V18.2989V18.3092V18.3194V18.3297V18.34V18.3504V18.3607V18.371V18.3814V18.3918V18.4022V18.4126V18.4231V18.4335V18.444V18.4545V18.465V18.4755V18.4861V18.4966V18.5072V18.5178V18.5284V18.5391V18.5497V18.5604V18.5711V18.5818V18.5926V18.6033V18.6141V18.6249V18.6357V18.6466V18.6574V18.6683V18.6792V18.6901V18.7011V18.712V18.723V18.734V18.7451V18.7561V18.7672V18.7783V18.7894V18.8006V18.8117V18.8229V18.8342V18.8454V18.8567V18.8679V18.8793V18.8906V18.902C1.5 20.5916 2.84017 22.5 5.4 22.5C6.64265 22.5 7.40132 21.959 8.3056 21.3142L8.32722 21.2988C9.24397 20.6451 10.291 19.9118 12 19.9118C13.709 19.9118 14.756 20.6451 15.6728 21.2988L15.6944 21.3142C16.5987 21.959 17.3574 22.5 18.6 22.5C21.1598 22.5 22.5 20.5916 22.5 18.902V18.8906V18.8793V18.8679V18.8567V18.8454V18.8342V18.8229V18.8117V18.8006V18.7894V18.7783V18.7672V18.7561V18.7451V18.734V18.723V18.712V18.7011V18.6901V18.6792V18.6683V18.6574V18.6466V18.6357V18.6249V18.6141V18.6033V18.5926V18.5818V18.5711V18.5604V18.5497V18.5391V18.5284V18.5178V18.5072V18.4966V18.4861V18.4755V18.465V18.4545V18.444V18.4335V18.4231V18.4126V18.4022V18.3918V18.3814V18.371V18.3607V18.3504V18.34V18.3297V18.3194V18.3092V18.2989V18.2887V18.2785V18.2682V18.258V18.2479V18.2377V18.2275V18.2174V18.2073V18.1972V18.1871V18.177V18.1669V18.1569V18.1468V18.1368V18.1268V18.1168V18.1068V18.0968V18.0869V18.0769V18.067V18.057V18.0471V18.0372V18.0273V18.0174V18.0076V17.9977V17.9878V17.978V17.9682V17.9583V17.9485V17.9387V17.9289V17.9192V17.9094V17.8996V17.8899V17.8801V17.8704V17.8607V17.8509V17.8412V17.8315V17.8218V17.8121V17.8024V17.7928V17.7831V17.7734V17.7638V17.7541V17.7445V17.7349V17.7252V17.7156V17.706V17.6964V17.6868V17.6772V17.6676V17.658V17.6484V17.6388V17.6293V17.6197V17.6101V17.6006V17.591V17.5814V17.5719V17.5623V17.5528V17.5432V17.5337V17.5242V17.5146V17.5051V17.4956V17.486V17.4765V17.467V17.4575V17.448V17.4384V17.4289V17.4194V17.4099V17.4004V17.3909V17.3813V17.3718V17.3623V17.3528V17.3433V17.3338V17.3242V17.3147V17.3052V17.2957V17.2862V17.2766V17.2671V17.2576V17.2481V17.2385V17.229V17.2194V17.2099V17.2004V17.1908V17.1813V17.1717V17.1622V17.1526V17.143V17.1335V17.1239V17.1143V17.1048V17.0952V17.0856V17.076V17.0664V17.0568V17.0472V17.0376V17.0279V17.0183V17.0087V16.999V16.9894V16.9797V16.9701V16.9604V16.9507V16.9411V16.9314V16.9217V16.912V16.9023V16.8925V16.8828V16.8731V16.8633V16.8536V16.8438V16.834V16.8243V16.8145V16.8047V16.7949V16.785V16.7752V16.7654V16.7555V16.7457V16.7358V16.7259V16.716V16.7061V16.6962V16.6863V16.6763V16.6664V16.6564V16.6464V16.6364V16.6264V16.6164V16.6064V16.5964V16.5863V16.5763V16.5662V16.5561V16.546V16.5359V16.5257V16.5156V16.5054V16.4952V16.485V16.4748V16.4646V16.4544V16.4441V16.4338V16.4236V16.4133V16.4029V16.3926V16.3823V16.3719V16.3615V16.3511V16.3407V16.3303V16.3198V16.3093V16.2988V16.2883V16.2778V16.2673V16.2567V16.2461V16.2355V16.2249V16.2143V16.2036V16.193V16.1823V16.1715V16.1608V16.1501V16.1393V16.1285V16.1177V16.1068V16.096V16.0851V16.0742V16.0633V16.0523V16.0414V16.0304V16.0194V16.0084V15.9973V15.9862V15.9751V15.964V15.9529V15.9417V15.9305V15.9193V15.9081V15.8968V15.8855V15.8742V15.8629V15.8515V15.8401V15.8287V15.8173V15.8058V15.7944V15.7829V15.7713V15.7598V15.7482V15.7366V15.7249V15.7133V15.7016V15.6899V15.6781V15.6663V15.6545V15.6427V15.6309V15.619V15.6071V15.5951V15.5832V15.5712V15.5591V15.5471V15.535V15.5229V15.5108V15.4986V15.4864V15.4742V15.4619V15.4496V15.4373V15.425V15.4126V15.4002V15.3877V15.3753V15.3628V15.3502V15.3377V15.3251V15.3124V15.2998V15.2871V15.2744V15.2616V15.2488V15.236V15.2231V15.2102V15.1973V15.1844V15.1714V15.1583V15.1453V15.1322V15.1191V15.1059V15.0927V15.0795V15.0662V15.0529V15.0396V15.0262V15.0128V14.9993V14.9859V14.9724V14.9588V14.9452V14.9316V14.9179V14.9042V14.8905V14.8767V14.8629V14.8491V14.8352V14.8213V14.8073V14.7933V14.7793V14.7652V14.7511V14.7369V14.7227V14.7085V14.6942V14.6799V14.6655V14.6512V14.6367V14.6223V14.6077V14.5932V14.5786V14.564V14.5493V14.5346V14.5198V14.505V14.4902V14.4753V14.4604V14.4454V14.4304V14.4153V14.4002V14.3851V14.3699V14.3547V14.3394V14.3241V14.3088V14.2934V14.2779V14.2624V14.2469V14.2313V14.2157V14.2V14.1843V14.1686V14.1528V14.1369V14.121V14.1051V14.0891V14.0731V14.057V14.0409V14.0247V14.0085V13.9923V13.9759V13.9596V13.9432V13.9267V13.9102V13.8937V13.8771V13.8604V13.8438V13.827V13.8102V13.7934V13.7765V13.7596V13.7426V13.7255V13.7085V13.6913V13.6741V13.6569V13.6396V13.6223V13.6049V13.5875V13.57V13.5524V13.5348V13.5172V13.4995V13.4817V13.4639V13.4461V13.4282V13.4102V13.3922V13.3742V13.3561V13.3379V13.3197V13.3014V13.2831V13.2647V13.2462V13.2278V13.2092V13.1906V13.172V13.1533V13.1345V13.1157V13.0968V13.0779V13.0589V13.0398V13.0207V13.0016V12.9824V12.9631V12.9438V12.9244V12.905V12.8855V12.8659V12.8463V12.8267V12.8069V12.7872V12.7673V12.7474V12.7275V12.7075V12.6874V12.6672V12.6471C22.5 11.1005 21.767 9.94292 20.7664 9.15813C19.7529 8.36318 18.4861 7.97059 17.5 7.97059H17.4897H17.4793H17.469H17.4586H17.4482H17.4378H17.4273H17.4169H17.4064H17.3959H17.3854H17.3748H17.3643H17.3537H17.3431H17.3325H17.3219H17.3112H17.3006H17.2899H17.2792H17.2684H17.2577H17.2469H17.2362H17.2254H17.2146H17.2038H17.1929H17.182H17.1712H17.1603H17.1494H17.1384H17.1275H17.1165H17.1056H17.0946H17.0836H17.0725H17.0615H17.0504H17.0394H17.0283H17.0172H17.0061H16.9949H16.9838H16.9726H16.9615H16.9503H16.9391H16.9278H16.9166H16.9053H16.8941H16.8828H16.8715H16.8602H16.8489H16.8376H16.8262H16.8148H16.8035H16.7921H16.7807H16.7693H16.7579H16.7464H16.735H16.7235H16.712H16.7005H16.689H16.6775H16.666H16.6545H16.6429H16.6314H16.6198H16.6082H16.5966H16.585H16.5734H16.5617H16.5501H16.5385H16.5268H16.5151H16.5034H16.4918H16.4801H16.4683H16.4566H16.4449H16.4331H16.4214H16.4096H16.3979H16.3861H16.3743H16.3625H16.3507H16.3389H16.327H16.3152H16.3033H16.2915H16.2796H16.2678H16.2559H16.244H16.2321H16.2202H16.2083H16.1964H16.1845H16.1725H16.1606H16.1486H16.1367H16.1247H16.1128H16.1008H16.0888H16.0768H16.0648H16.0528H16.0408H16.0288H16.0168H16.0047H15.9927H15.9807H15.9686H15.9566H15.9445H15.9325H15.9204H15.9083H15.8963H15.8842H15.8721H15.86H15.8479H15.8358H15.8237H15.8116H15.7995H15.7874H15.7753H15.7631H15.751H15.7389H15.7268H15.7146H15.7025H15.6903H15.6782H15.666H15.6539H15.6417H15.6296H15.6174H15.6053H15.5931H15.5809H15.5688H15.5566H15.5444H15.5322H15.5201H15.5079H15.4957H15.4835H15.4713H15.4592H15.447H15.4348H15.4226H15.4104H15.3982H15.3861H15.3739H15.3617H15.3495H15.3373H15.3251H15.3129H15.3007H15.2886H15.2764H15.2642H15.252H15.2398H15.2276H15.2154H15.2033H15.1911H15.1789H15.1667H15.1546H15.1424H15.1302H15.118H15.1059H15.0937H15.0816H15.0694H15.0572H15.0451H15.0329H15.0208H15.0086H14.9965H14.9843H14.9722H14.9601H14.9479H14.9358H14.9237H14.9116H14.8995H14.8873H14.8752H14.8631H14.851H14.8389H14.8268H14.8148H14.8027H14.7906H14.7785H14.7665H14.7544H14.7423H14.7303H14.7182H14.7062H14.6942H14.6821H14.6701H14.6581H14.6461H14.6341H14.6221H14.6101H14.5981H14.5861H14.5742H14.5622H14.5503H14.5383H14.5264H14.5144H14.5025H14.4906H14.4787H14.4668H14.4549H14.443H14.4311H14.4192H14.4074H14.3955H14.3837H14.3718H14.36H14.3482H14.3364H14.3246H14.3128H14.301H14.2892H14.2774H14.2657H14.2539H14.2422H14.2305H14.2188H14.207H14.1954H14.1837H14.172H14.1603H14.1487H14.137H14.1254H14.1138H14.1022H14.0906H14.079H14.0674H14.0558H14.0443H14.0327H14.0212H14.0097H13.9982H13.9867H13.9752H13.9637H13.9523H13.9409H13.9294H13.918H13.9066H13.8952H13.8838H13.8725H13.8611H13.8498H13.8385H13.8271H13.8158H13.8046H13.7933H13.782H13.7708H13.7596H13.7484H13.7372H13.726H13.7148H13.7037H13.6925H13.6814H13.6703H13.6592H13.6481H13.6371H13.626H13.615H13.604H13.593H13.582H13.571H13.5601H13.5491H13.5382H13.5273H13.5165H13.5056H13.4947H13.4839H13.4731H13.4623H13.4515H13.4408H13.43H13.4193H13.4086H13.3979H13.3872H13.3765H13.3659H13.3553H13.3447H13.3341H13.3236H13.313H13.3025H13.292H13.2815H13.271H13.2606H13.2501H13.2397H13.2293H13.219H13.2086H13.1983H13.188H13.1777H13.1674H13.1572H13.147H13.1367H13.1266H13.1164H13.1062H13.0961H13.086H13.0759H13.0659H13.0558H13.0458H13.0358H13.0259H13.0159H13.006H12.9961H12.9862H12.9763H12.9665H12.9567H12.9469H12.9371H12.9273H12.9176H12.9079H12.8982H12.8886H12.8789H12.8693H12.8598H12.8502H12.8407H12.8311H12.8216H12.8122H12.8027H12.7933H12.7839H12.7746H12.7652H12.7559H12.7466H12.7373H12.7281H12.7189H12.7097H12.7005H12.6914H12.6823H12.6732H12.6641H12.6551H12.6461H12.6371H12.6281H12.6192H12.6103H12.6014H12.5925H12.5837H12.5749H12.5662H12.5574H12.5487H12.54H12.5313H12.5227H12.5141H12.5055H12.497H12.4885H12.48H12.4715H12.4631H12.4546H12.4463H12.4379H12.4296H12.4213H12.413H12.4048H12.3966H12.3884H12.3803H12.3722H12.3641H12.356H12.348H12.34H12.332H12.3241H12.3162H12.3083H12.3005H12.2926H12.2849H12.2771H12.2694H12.2617H12.254H12.2464H12.2388H12.2312H12.2237H12.2162H12.2087H12.2013H12.1939H12.1865H12.1792H12.1719H12.1646H12.1573H12.1501H12.143H12.1358H12.1287H12.1216H12.1146H12.1076H12.1006H12.0936H12.0867H12.0799H12.073H12.0662H12.0594H12.0527H12.046H12.0393H12.0327H12.0261H12.0195H12.013H12.0065H12H11.9972H11.9945H11.9917H11.9889H11.9861H11.9833H11.9805H11.9777H11.9749H11.9721H11.9692H11.9664H11.9636H11.9607H11.9578H11.955H11.9521H11.9492H11.9464H11.9435H11.9406H11.9377H11.9348H11.9319H11.929H11.926H11.9231H11.9202H11.9172H11.9143H11.9113H11.9083H11.9054H11.9024H11.8994H11.8964H11.8934H11.8905H11.8874H11.8844H11.8814H11.8784H11.8754H11.8723H11.8693H11.8662H11.8632H11.8601H11.8571H11.854H11.8509H11.8478H11.8447H11.8416H11.8385H11.8354H11.8323H11.8292H11.8261H11.8229H11.8198H11.8167H11.8135H11.8104H11.8072H11.804H11.8008H11.7977H11.7945H11.7913H11.7881H11.7849H11.7817H11.7785H11.7752H11.772H11.7688H11.7656H11.7623H11.7591H11.7558H11.7525H11.7493H11.746H11.7427H11.7394H11.7361H11.7329H11.7296H11.7262H11.7229H11.7196H11.7163H11.713H11.7096H11.7063H11.7029H11.6996H11.6962H11.6929H11.6895H11.6861H11.6827H11.6793H11.676H11.6726H11.6692H11.6657H11.6623H11.6589H11.6555H11.6521H11.6486H11.6452H11.6417H11.6383H11.6348H11.6314H11.6279H11.6244H11.6209H11.6174H11.614H11.6105H11.607H11.6035H11.5999H11.5964H11.5929H11.5894H11.5858H11.5823H11.5788H11.5752H11.5716H11.5681H11.5645H11.5609H11.5574H11.5538H11.5502H11.5466H11.543H11.5394H11.5358H11.5322H11.5286H11.5249H11.5213H11.5177H11.514H11.5104H11.5067H11.5031H11.4994H11.4958H11.4921H11.4884H11.4847H11.4811H11.4774H11.4737H11.47H11.4663H11.4625H11.4588H11.4551H11.4514H11.4476H11.4439H11.4402H11.4364H11.4327H11.4289H11.4252H11.4214H11.4176H11.4138H11.4101H11.4063H11.4025H11.3987H11.3949H11.3911H11.3873H11.3834H11.3796H11.3758H11.372H11.3681H11.3643H11.3604H11.3566H11.3527H11.3489H11.345H11.3411H11.3373H11.3334H11.3295H11.3256H11.3217H11.3178H11.3139H11.31H11.3061H11.3022H11.2983H11.2943H11.2904H11.2865H11.2825H11.2786H11.2746H11.2707H11.2667H11.2628H11.2588H11.2548H11.2508H11.2469H11.2429H11.2389H11.2349H11.2309H11.2269H11.2229H11.2189H11.2148H11.2108H11.2068H11.2028H11.1987H11.1947H11.1906H11.1866H11.1825H11.1785H11.1744H11.1703H11.1663H11.1622H11.1581H11.154H11.1499H11.1458H11.1417H11.1376H11.1335H11.1294H11.1253H11.1212H11.1171H11.1129H11.1088H11.1047H11.1005H11.0964H11.0922H11.0881H11.0839H11.0797H11.0756H11.0714H11.0672H11.063H11.0589H11.0547H11.0505H11.0463H11.0421H11.0379H11.0337H11.0294H11.0252H11.021H11.0168H11.0125H11.0083H11.0041H10.9998H10.9956H10.9913H10.9871H10.9828H10.9786H10.9743H10.97H10.9657H10.9615H10.9572H10.9529H10.9486H10.9443H10.94H10.9357H10.9314H10.9271H10.9228H10.9185H10.9141H10.9098H10.9055H10.9011H10.8968H10.8925H10.8881H10.8838H10.8794H10.8751H10.8707H10.8663H10.862H10.8576H10.8532H10.8488H10.8444H10.8401H10.8357H10.8313H10.8269H10.8225H10.8181H10.8137H10.8092H10.8048H10.8004H10.796H10.7915H10.7871H10.7827H10.7782H10.7738H10.7693H10.7649H10.7604H10.756H10.7515H10.7471H10.7426H10.7381H10.7336H10.7292H10.7247H10.7202H10.7157H10.7112H10.7067H10.7022H10.6977H10.6932H10.6887H10.6842H10.6797H10.6751H10.6706H10.6661H10.6615H10.657H10.6525H10.6479H10.6434H10.6388H10.6343H10.6297H10.6252H10.6206H10.616H10.6115H10.6069H10.6023H10.5977H10.5932H10.5886H10.584H10.5794H10.5748H10.5702H10.5656H10.561H10.5564H10.5518H10.5472H10.5425H10.5379H10.5333H10.5287H10.524H10.5194H10.5148H10.5101H10.5055H10.5008H10.4962H10.4915H10.4869H10.4822H10.4776H10.4729H10.4682H10.4635H10.4589H10.4542H10.4495H10.4448H10.4401H10.4355H10.4308H10.4261H10.4214H10.4167H10.412H10.4073H10.4025H10.3978H10.3931H10.3884H10.3837H10.3789H10.3742H10.3695H10.3648H10.36H10.3553H10.3505H10.3458H10.341H10.3363H10.3315H10.3268H10.322H10.3173H10.3125H10.3077H10.303H10.2982H10.2934H10.2886H10.2838H10.2791H10.2743H10.2695H10.2647H10.2599H10.2551H10.2503H10.2455H10.2407H10.2359H10.2311H10.2262H10.2214H10.2166H10.2118H10.207H10.2021H10.1973H10.1925H10.1876H10.1828H10.178H10.1731H10.1683H10.1634H10.1586H10.1537H10.1489H10.144H10.1392H10.1343H10.1294H10.1246H10.1197H10.1148H10.1099H10.1051H10.1002H10.0953H10.0904H10.0855H10.0806H10.0758H10.0709H10.066H10.0611H10.0562H10.0513H10.0464H10.0414H10.0365H10.0316H10.0267H10.0218H10.0169H10.0119H10.007H10.0021H9.99717H9.99224H9.9873H9.98237H9.97743H9.97249H9.96755H9.96261H9.95766H9.95271H9.94776H9.94281H9.93785H9.9329H9.92794H9.92132H9.9147H9.90808H9.90145H9.89482H9.88818H9.88154H9.8749H9.86825H9.8616H9.85495H9.84829H9.84163H9.83497H9.8283H9.82163H9.81496H9.80828H9.8016H9.79492H9.78823H9.78154H9.77484H9.76815H9.76144H9.75474H9.74803H9.74132H9.73461H9.72789H9.72117H9.71445H9.70772H9.70099H9.69426H9.68752H9.68079H9.67404H9.6673H9.66055H9.6538H9.64705H9.64029H9.63353H9.62677H9.62H9.61324H9.60647H9.59969H9.59292H9.58614H9.57936H9.57257H9.56578H9.55899H9.5522H9.54541H9.53861H9.53181H9.52501H9.5182H9.51139H9.50458H9.49777H9.49095H9.48414H9.47732H9.47049H9.46367H9.45684H9.45001H9.44318H9.43635H9.42951H9.42267H9.41583H9.40899H9.40214H9.39529H9.38844H9.38159H9.37474H9.36788H9.36102H9.35416H9.3473H9.34043H9.33357H9.3267H9.31983H9.31295H9.30608H9.2992H9.29233H9.28545H9.27856H9.27168H9.2648H9.25791H9.25102H9.24413H9.23724H9.23034H9.22345H9.21655H9.20965H9.20275H9.19585H9.18894H9.18204H9.17513H9.16822H9.16131H9.1544H9.14749H9.14057H9.13366H9.12674H9.11982H9.1129H9.10598H9.09906H9.09213H9.08521H9.07828H9.07135H9.06442H9.05749H9.05056H9.04363H9.0367H9.02976H9.02283H9.01589H9.00895H9.00201H8.99507H8.98813H8.98119H8.97425H8.9673H8.96036H8.95341H8.94647H8.93952H8.93257H8.92562H8.91867H8.91172H8.90477H8.89782H8.89087H8.88391H8.87696H8.87H8.86305H8.85609H8.84914H8.84218H8.83522H8.82826H8.8213H8.81434H8.80738H8.80042H8.79346H8.7865H8.77954H8.77258H8.76562H8.75866H8.75169H8.74473H8.73777H8.7308H8.72384H8.71688H8.70991H8.70295H8.69598H8.68902H8.68205H8.67509H8.66812H8.66116H8.65419H8.64723H8.64026H8.6333H8.62634H8.61937H8.61241H8.60544H8.59848H8.59151H8.58455H8.57758H8.57062H8.56366H8.55669H8.54973H8.54277H8.53581H8.52884H8.52188H8.51492H8.50796H8.501H8.49404H8.48708H8.48012H8.47316H8.46621H8.45925H8.45229H8.44534H8.43838H8.43143H8.42447H8.41752H8.41056H8.40361H8.39666H8.38971H8.38276H8.37581H8.36886H8.36191H8.35497H8.34802H8.34108H8.33413H8.32719H8.32025H8.3133H8.30636H8.29943H8.29249H8.28555H8.27861H8.27168H8.26474H8.25781H8.25088H8.24395H8.23702H8.23009H8.22316H8.21624H8.20931H8.20239H8.19547H8.18855H8.18163H8.17471H8.1678H8.16088H8.15397H8.14705H8.14014H8.13323H8.12633H8.11942H8.11252H8.10561H8.09871H8.09181H8.08491H8.07802H8.07112H8.06423H8.05734H8.05045H8.04356H8.03667H8.02979H8.02291H8.01603H8.00915H8.00227H7.99539H7.98852H7.98165H7.97478H7.96791H7.96105H7.95418H7.94732H7.94046H7.93361H7.92675H7.9199H7.91305H7.9062H7.89935H7.89251H7.88567H7.87883H7.87199H7.86515H7.85832H7.85149H7.84466H7.83784H7.83101H7.82419H7.81737H7.81055H7.80374H7.79693H7.79012H7.78331H7.77651H7.76971H7.76291H7.75611H7.74932H7.74253H7.73574H7.72896H7.72217H7.71539H7.70862H7.70184H7.69507H7.6883H7.68153H7.67477H7.66801H7.66125H7.6545H7.64775H7.641H7.63425H7.62751H7.62077H7.61403H7.6073H7.60057H7.59384H7.58711H7.58039H7.57368H7.56696H7.56025H7.55354H7.54683H7.54013H7.53343H7.52674H7.52004H7.51336H7.50667H7.49999H7.49331H7.48663H7.47996H7.47329H7.46663H7.45996H7.45331H7.44665H7.44H7.43335H7.42671H7.42007H7.41343H7.4068H7.40017H7.39354H7.38692H7.3803H7.37369H7.36708H7.36047H7.35387H7.34727H7.34067H7.33408H7.32749H7.32091H7.31433H7.30775H7.30118H7.29461H7.28805H7.28149H7.27493H7.26838H7.26184H7.25529H7.24875H7.24222H7.23569H7.22916H7.22264H7.21612H7.2096H7.20309H7.19659H7.19009H7.18359H7.1771H7.17061H7.16413H7.15765H7.15117H7.1447H7.13823H7.13177H7.12531H7.11886H7.11242H7.10597H7.09953H7.0931H7.08667H7.08024H7.07382H7.06741H7.061H7.05459H7.04819H7.04179H7.0354H7.02901H7.02263H7.01626H7.00988H7.00352H6.99715H6.9908H6.98444H6.9781H6.97175H6.96542H6.95908H6.95276H6.94643H6.94012H6.93381H6.9275H6.9212H6.9149H6.90861H6.90232H6.89604H6.88977H6.8835H6.87723H6.87097H6.86472H6.85847H6.85222H6.84599H6.83975H6.83352H6.8273H6.82109H6.81488H6.80867H6.80247H6.79628H6.79009H6.78391H6.77773H6.77155H6.76539H6.75923H6.75307H6.74693H6.74078H6.73465H6.72851H6.72239H6.71627H6.71015H6.70404H6.69794H6.69184H6.68575H6.67967H6.67359H6.66752H6.66145H6.65539H6.64934H6.64329H6.63725H6.63121H6.62518H6.61916H6.61314H6.60713H6.60112H6.59512H6.58913H6.58314H6.57716H6.57119H6.56522H6.55926H6.5533H6.54736H6.54141H6.53548H6.52955H6.52363H6.51771H6.5118H6.5059H6.5C5.51389 7.97059 4.24713 8.36318 3.23357 9.15813ZM5.4 13.0098C5.67614 13.0098 5.9 13.2337 5.9 13.5098V14.7353H7.16C7.43614 14.7353 7.66 14.9592 7.66 15.2353C7.66 15.5114 7.43614 15.7353 7.16 15.7353H5.9V16.9608C5.9 17.2369 5.67614 17.4608 5.4 17.4608C5.12386 17.4608 4.9 17.2369 4.9 16.9608V15.7353H3.64C3.36386 15.7353 3.14 15.5114 3.14 15.2353C3.14 14.9592 3.36386 14.7353 3.64 14.7353H4.9V13.5098C4.9 13.2337 5.12386 13.0098 5.4 13.0098ZM17.94 13.4412C18.2161 13.4412 18.44 13.665 18.44 13.9412V14.1569C18.44 14.433 18.2161 14.6569 17.94 14.6569C17.6639 14.6569 17.44 14.433 17.44 14.1569V13.9412C17.44 13.665 17.6639 13.4412 17.94 13.4412ZM9.52 15.2353C9.52 14.9592 9.74386 14.7353 10.02 14.7353H13.76C14.0361 14.7353 14.26 14.9592 14.26 15.2353C14.26 15.5114 14.0361 15.7353 13.76 15.7353H10.02C9.74386 15.7353 9.52 15.5114 9.52 15.2353ZM16.12 15.2353C16.12 14.9592 16.3439 14.7353 16.62 14.7353H16.84C17.1161 14.7353 17.34 14.9592 17.34 15.2353C17.34 15.5114 17.1161 15.7353 16.84 15.7353H16.62C16.3439 15.7353 16.12 15.5114 16.12 15.2353ZM18.54 15.2353C18.54 14.9592 18.7639 14.7353 19.04 14.7353H19.26C19.5361 14.7353 19.76 14.9592 19.76 15.2353C19.76 15.5114 19.5361 15.7353 19.26 15.7353H19.04C18.7639 15.7353 18.54 15.5114 18.54 15.2353ZM17.94 15.8137C18.2161 15.8137 18.44 16.0376 18.44 16.3137V16.5294C18.44 16.8056 18.2161 17.0294 17.94 17.0294C17.6639 17.0294 17.44 16.8056 17.44 16.5294V16.3137C17.44 16.0376 17.6639 15.8137 17.94 15.8137Z" fill="#504B43"/>
</g>
<defs>
<clipPath id="clip0_3236_6706">
<rect width="24" height="24" fill="white"/>
</clipPath>
</defs>
</svg>
