<svg width="24" height="24" viewBox="0 0 24 24" fill="none" xmlns="http://www.w3.org/2000/svg">
<g clip-path="url(#clip0_3234_6667)">
<path fill-rule="evenodd" clip-rule="evenodd" d="M5 0.5C3.61929 0.5 2.5 1.61929 2.5 3C2.5 4.38071 3.61929 5.5 5 5.5H5.5V7.5H3C1.61929 7.5 0.5 8.61929 0.5 10C0.5 11.3807 1.61929 12.5 3 12.5H4.5V15C4.5 15.1753 4.53008 15.3436 4.58535 15.5H-1C-1.27614 15.5 -1.5 15.7239 -1.5 16C-1.5 16.2761 -1.27614 16.5 -1 16.5H6H6.46303H18H25C25.2761 16.5 25.5 16.2761 25.5 16C25.5 15.7239 25.2761 15.5 25 15.5H19.4146C19.4699 15.3436 19.5 15.1753 19.5 15V12.5H21C22.3807 12.5 23.5 11.3807 23.5 10C23.5 8.61929 22.3807 7.5 21 7.5H18.5V5.5H19C20.3807 5.5 21.5 4.38071 21.5 3C21.5 1.61929 20.3807 0.5 19 0.5H5ZM17.5 5.5V7.5H6.5V5.5H17.5ZM3.5 3C3.5 2.17157 4.17157 1.5 5 1.5H19C19.8284 1.5 20.5 2.17157 20.5 3C20.5 3.82843 19.8284 4.5 19 4.5H5C4.17157 4.5 3.5 3.82843 3.5 3ZM19 11.5H19.5H21C21.8284 11.5 22.5 10.8284 22.5 10C22.5 9.17157 21.8284 8.5 21 8.5H3C2.17157 8.5 1.5 9.17157 1.5 10C1.5 10.8284 2.17157 11.5 3 11.5H4.5H5H7H7.5H16.5H17H19ZM18.5 12.5H17.5V15C17.5 15.2761 17.7239 15.5 18 15.5C18.2761 15.5 18.5 15.2761 18.5 15V12.5ZM16.5 15C16.5 15.1753 16.5301 15.3436 16.5854 15.5H7.41465C7.46992 15.3436 7.5 15.1753 7.5 15V12.5H16.5V15ZM6.5 12.5V15C6.5 15.2761 6.27614 15.5 6 15.5C5.72386 15.5 5.5 15.2761 5.5 15V12.5H6.5ZM-2 18.5002C-2.27614 18.5002 -2.5 18.724 -2.5 19.0002C-2.5 19.2763 -2.27614 19.5002 -2 19.5002C-1.47567 19.5002 -1.11282 19.5583 -0.836866 19.6372C-0.561214 19.716 -0.352957 19.8205 -0.126381 19.9413L-0.0616455 19.976L-0.0616283 19.976L-0.0615826 19.9761C0.14706 20.088 0.390762 20.2189 0.68894 20.3183C1.02676 20.4309 1.42058 20.5002 1.93671 20.5002C2.99455 20.5002 3.55167 20.2067 4.04229 19.9391L4.06349 19.9276C4.48964 19.695 4.84665 19.5002 5.59594 19.5002C6.36359 19.5002 6.76836 19.706 7.22459 19.9436L7.24716 19.9554C7.73614 20.2102 8.29248 20.5002 9.24773 20.5002C10.2058 20.5002 10.8512 20.2097 11.403 19.9538L11.4285 19.9419C11.9612 19.6948 12.3806 19.5002 12.997 19.5002C13.6214 19.5002 14.0895 19.7 14.6742 19.9496L14.6988 19.9601C15.2917 20.2131 15.9813 20.5002 16.9337 20.5002C17.8754 20.5002 18.4298 20.2181 18.921 19.9681L18.9645 19.946C19.4283 19.7103 19.8607 19.5002 20.6829 19.5002C21.4859 19.5002 21.9661 19.6961 22.5446 19.9322L22.621 19.9633C23.2626 20.2244 23.9931 20.5002 25.2195 20.5002C25.8236 20.5002 26.2752 20.4336 26.6448 20.3229C27.0165 20.2116 27.2824 20.062 27.5049 19.9312L27.559 19.8994C27.7559 19.7833 27.9035 19.6963 28.0971 19.628C28.3007 19.5562 28.5738 19.5002 29 19.5002C29.2761 19.5002 29.5 19.2763 29.5 19.0002C29.5 18.724 29.2761 18.5002 29 18.5002C28.481 18.5002 28.0926 18.5692 27.7645 18.6849C27.4745 18.7872 27.246 18.9225 27.0568 19.0345L27.0567 19.0345L26.9981 19.0691C26.7953 19.1884 26.6123 19.2888 26.3579 19.3649C26.1013 19.4418 25.7496 19.5002 25.2195 19.5002C24.1777 19.5002 23.5849 19.2759 22.9979 19.0371L22.9085 19.0006C22.3193 18.7597 21.6843 18.5002 20.6829 18.5002C19.6305 18.5002 19.0319 18.79 18.5115 19.0544L18.4785 19.0712C18.0121 19.3084 17.6348 19.5002 16.9337 19.5002C16.1989 19.5002 15.67 19.2873 15.0913 19.0403L15.0219 19.0106C14.4633 18.7717 13.8289 18.5002 12.997 18.5002C12.1572 18.5002 11.5626 18.7767 11.0444 19.0177L10.9823 19.0466C10.4562 19.2906 9.97686 19.5002 9.24773 19.5002C8.5377 19.5002 8.15949 19.3031 7.70047 19.064L7.68659 19.0567C7.18301 18.7944 6.60546 18.5002 5.59594 18.5002C4.59176 18.5002 4.05646 18.7922 3.57954 19.0525L3.56344 19.0612C3.13739 19.2936 2.75348 19.5002 1.93671 19.5002C1.51552 19.5002 1.22979 19.4445 1.00522 19.3696C0.791882 19.2985 0.62104 19.2071 0.404671 19.0913L0.34428 19.059C0.1022 18.9299 -0.181629 18.7844 -0.562096 18.6757C-0.942259 18.567 -1.39956 18.5002 -2 18.5002ZM-2 21.5002C-2.27614 21.5002 -2.5 21.724 -2.5 22.0002C-2.5 22.2763 -2.27614 22.5002 -2 22.5002C-1.47567 22.5002 -1.11282 22.5583 -0.836866 22.6372C-0.561214 22.716 -0.352957 22.8205 -0.126381 22.9413L-0.0616455 22.976L-0.0616283 22.976L-0.0615826 22.9761C0.14706 23.088 0.390762 23.2189 0.68894 23.3183C1.02676 23.4309 1.42058 23.5002 1.93671 23.5002C2.99455 23.5002 3.55167 23.2067 4.04229 22.9391L4.06349 22.9276C4.48964 22.695 4.84665 22.5002 5.59594 22.5002C6.36359 22.5002 6.76836 22.706 7.22459 22.9436L7.24716 22.9554C7.73614 23.2102 8.29248 23.5002 9.24773 23.5002C10.2058 23.5002 10.8512 23.2097 11.403 22.9538L11.4285 22.9419C11.9612 22.6948 12.3806 22.5002 12.997 22.5002C13.6214 22.5002 14.0895 22.7 14.6742 22.9496L14.6988 22.9601C15.2917 23.2131 15.9813 23.5002 16.9337 23.5002C17.8754 23.5002 18.4298 23.2181 18.921 22.9681L18.9645 22.946C19.4283 22.7103 19.8607 22.5002 20.6829 22.5002C21.4859 22.5002 21.9661 22.6961 22.5446 22.9322L22.621 22.9633C23.2626 23.2244 23.9931 23.5002 25.2195 23.5002C25.8236 23.5002 26.2752 23.4336 26.6448 23.3229C27.0165 23.2116 27.2824 23.062 27.5049 22.9312L27.559 22.8994C27.7559 22.7833 27.9035 22.6963 28.0971 22.628C28.3007 22.5562 28.5738 22.5002 29 22.5002C29.2761 22.5002 29.5 22.2763 29.5 22.0002C29.5 21.724 29.2761 21.5002 29 21.5002C28.481 21.5002 28.0926 21.5692 27.7645 21.6849C27.4745 21.7872 27.246 21.9225 27.0568 22.0345L27.0567 22.0345L26.9981 22.0691C26.7953 22.1884 26.6123 22.2888 26.3579 22.3649C26.1013 22.4418 25.7496 22.5002 25.2195 22.5002C24.1777 22.5002 23.5849 22.2759 22.9979 22.0371L22.9085 22.0006C22.3193 21.7597 21.6843 21.5002 20.6829 21.5002C19.6305 21.5002 19.0319 21.79 18.5115 22.0544L18.4785 22.0712C18.0121 22.3084 17.6348 22.5002 16.9337 22.5002C16.1989 22.5002 15.67 22.2873 15.0913 22.0403L15.0219 22.0106C14.4633 21.7717 13.8289 21.5002 12.997 21.5002C12.1572 21.5002 11.5626 21.7767 11.0444 22.0177L10.9823 22.0466C10.4562 22.2906 9.97686 22.5002 9.24773 22.5002C8.5377 22.5002 8.15949 22.3031 7.70047 22.064L7.68659 22.0567C7.18301 21.7944 6.60546 21.5002 5.59594 21.5002C4.59176 21.5002 4.05646 21.7922 3.57954 22.0525L3.56344 22.0612C3.13739 22.2936 2.75348 22.5002 1.93671 22.5002C1.51552 22.5002 1.22979 22.4445 1.00522 22.3696C0.791882 22.2985 0.62104 22.2071 0.404671 22.0913L0.34428 22.059C0.1022 21.9299 -0.181629 21.7844 -0.562096 21.6757C-0.942259 21.567 -1.39956 21.5002 -2 21.5002Z" fill="#504B43"/>
</g>
<defs>
<clipPath id="clip0_3234_6667">
<rect width="24" height="24" fill="white"/>
</clipPath>
</defs>
</svg>
