<svg width="24" height="24" viewBox="0 0 24 24" fill="none" xmlns="http://www.w3.org/2000/svg">
<g clip-path="url(#clip0_3235_6690)">
<path fill-rule="evenodd" clip-rule="evenodd" d="M23 12C23 18.0751 18.0751 23 12 23C5.92487 23 1 18.0751 1 12C1 5.92487 5.92487 1 12 1C18.0751 1 23 5.92487 23 12ZM24 12C24 18.6274 18.6274 24 12 24C5.37258 24 0 18.6274 0 12C0 5.37258 5.37258 0 12 0C18.6274 0 24 5.37258 24 12ZM20 12C20 16.4183 16.4183 20 12 20C7.58172 20 4 16.4183 4 12C4 7.58172 7.58172 4 12 4C16.4183 4 20 7.58172 20 12ZM21 12C21 16.9706 16.9706 21 12 21C7.02944 21 3 16.9706 3 12C3 7.02944 7.02944 3 12 3C16.9706 3 21 7.02944 21 12ZM12 13C12.5523 13 13 12.5523 13 12C13 11.4477 12.5523 11 12 11C11.4477 11 11 11.4477 11 12C11 12.5523 11.4477 13 12 13ZM12 14C13.1046 14 14 13.1046 14 12C14 10.8954 13.1046 10 12 10C10.8954 10 10 10.8954 10 12C10 13.1046 10.8954 14 12 14ZM12 17C11.3133 17 10.8335 16.9328 10.5229 16.8592C10.5673 16.8075 10.6111 16.7558 10.6535 16.7059L10.6538 16.7055L10.6539 16.7054L10.7222 16.625C10.9002 16.4161 11.0812 16.208 11.2696 16.0196C11.4605 15.8287 11.632 15.6858 11.7804 15.5948C11.9317 15.502 11.9993 15.5 12 15.5C12.0007 15.5 12.0683 15.502 12.2196 15.5948C12.368 15.6858 12.5395 15.8287 12.7304 16.0196C12.9188 16.208 13.0999 16.4161 13.2778 16.625L13.3461 16.7054C13.3886 16.7555 13.4326 16.8074 13.4771 16.8592C13.1665 16.9328 12.6868 17 12 17ZM10.1253 16.725L10.1242 16.7243C10.1241 16.7244 10.1246 16.7247 10.1257 16.7254L10.1291 16.7273L10.1253 16.725ZM13.8759 16.7243C13.8759 16.7244 13.8743 16.7254 13.8709 16.7273C13.8741 16.7253 13.8758 16.7243 13.8759 16.7243ZM9.50004 17.5C9.6667 17.6667 10.4 18 12 18C13.6 18 14.3333 17.6667 14.5 17.5C14.6667 17.3333 14.9 16.9 14.5 16.5C14.3924 16.3924 14.2616 16.2384 14.1126 16.0631C13.5695 15.4237 12.7847 14.5 12 14.5C11.2153 14.5 10.4305 15.4237 9.88744 16.063C9.73846 16.2384 9.60767 16.3924 9.50004 16.5C9.10004 16.9 9.33337 17.3333 9.50004 17.5ZM6.48815 11.9545C6.52149 12.2719 6.61684 12.7469 6.84412 13.3949C7.0714 14.0429 7.29363 14.4735 7.46586 14.7422C7.49999 14.6831 7.53432 14.6245 7.56748 14.5679L7.56759 14.5677L7.62086 14.4766C7.75908 14.2396 7.89556 13.9998 8.01099 13.7597C8.12794 13.5163 8.2061 13.3072 8.24282 13.1371C8.28026 12.9636 8.25981 12.8991 8.25958 12.8985C8.25935 12.8978 8.23506 12.8347 8.09745 12.7226C7.96249 12.6126 7.77085 12.4982 7.52754 12.3812C7.28741 12.2658 7.03106 12.1638 6.77506 12.065L6.67659 12.0272C6.61527 12.0037 6.55176 11.9793 6.48815 11.9545ZM6.48341 11.5335C6.48346 11.5336 6.48312 11.5355 6.48224 11.5392L6.48303 11.5351C6.48325 11.534 6.48339 11.5335 6.48341 11.5335ZM7.72507 15.0738C7.72507 15.0738 7.72467 15.0736 7.72387 15.0729L7.72062 15.0701C7.72359 15.0724 7.72507 15.0737 7.72507 15.0738ZM5.90048 13.7259C5.37094 12.2161 5.44278 11.4137 5.5449 11.2013C5.64701 10.9889 5.9787 10.6253 6.48854 10.8703C6.62572 10.9363 6.81427 11.0087 7.02904 11.0913L7.02909 11.0913C7.81212 11.3922 8.9435 11.827 9.20322 12.5675C9.46294 13.308 8.85098 14.3543 8.42744 15.0784C8.31127 15.277 8.20928 15.4513 8.14334 15.5885C7.89826 16.0984 7.41213 16.0216 7.19969 15.9195C6.98726 15.8174 6.43002 15.2357 5.90048 13.7259ZM17.3591 13.3949C17.5864 12.7469 17.6817 12.2719 17.7151 11.9545C17.6515 11.9793 17.5879 12.0037 17.5266 12.0272L17.4282 12.065C17.1722 12.1638 16.9158 12.2658 16.6757 12.3812C16.4324 12.4982 16.2407 12.6126 16.1058 12.7226C15.9682 12.8347 15.9439 12.8978 15.9436 12.8985C15.9434 12.8991 15.923 12.9636 15.9604 13.1371C15.9971 13.3072 16.0753 13.5163 16.1922 13.7597C16.3077 13.9998 16.4441 14.2396 16.5824 14.4766L16.6356 14.5677L16.6356 14.5677L16.636 14.5683C16.6691 14.6248 16.7033 14.6833 16.7374 14.7422C16.9096 14.4735 17.1318 14.0429 17.3591 13.3949ZM17.7198 11.5335C17.7198 11.5336 17.7201 11.5355 17.721 11.5392C17.7203 11.5353 17.7199 11.5335 17.7198 11.5335ZM16.4782 15.0738C16.4782 15.0739 16.4796 15.0727 16.4826 15.0701C16.4796 15.0724 16.4782 15.0737 16.4782 15.0738ZM18.6583 11.2013C18.7604 11.4137 18.8323 12.2161 18.3027 13.7259C17.7732 15.2357 17.216 15.8174 17.0035 15.9195C16.7911 16.0216 16.305 16.0984 16.0599 15.5885C15.9939 15.4513 15.892 15.277 15.7758 15.0784C15.3522 14.3543 14.7403 13.308 15 12.5675C15.2597 11.827 16.3911 11.3922 17.1741 11.0913C17.3889 11.0087 17.5775 10.9363 17.7147 10.8703C18.2245 10.6253 18.5562 10.9889 18.6583 11.2013ZM9.97179 6.67049C9.68479 6.81014 9.27081 7.06186 8.73922 7.49661C8.20764 7.93135 7.87879 8.28714 7.68498 8.54072C7.75221 8.55265 7.81911 8.56494 7.88369 8.5768L7.98749 8.5958C8.25746 8.64485 8.52942 8.69132 8.79452 8.71789C9.06314 8.74481 9.28636 8.74693 9.45884 8.72338C9.63472 8.69938 9.68832 8.65816 9.68886 8.65772C9.6894 8.65727 9.74043 8.61292 9.79886 8.44531C9.85616 8.28094 9.89837 8.06174 9.92529 7.79312C9.95185 7.52803 9.96026 7.25226 9.96576 6.97792L9.96773 6.87244C9.96892 6.80678 9.97015 6.73877 9.97179 6.67049ZM10.3658 6.52243L10.3651 6.52259L10.3601 6.52326C10.3624 6.52286 10.364 6.52262 10.3649 6.5225C10.3655 6.52242 10.3658 6.5224 10.3658 6.52243ZM7.46168 8.89752C7.46161 8.89755 7.46218 8.89576 7.46363 8.89209C7.46247 8.89567 7.46175 8.8975 7.46168 8.89752ZM8.10614 6.72252C9.34469 5.70959 10.1234 5.50337 10.3579 5.52687C10.5924 5.55037 11.0474 5.7381 10.991 6.30096C10.9758 6.45241 10.972 6.6544 10.9677 6.88446C10.9521 7.72317 10.9294 8.93501 10.3219 9.43181C9.71447 9.92861 8.5222 9.71036 7.69705 9.5593L7.69699 9.55929L7.69691 9.55928C7.47064 9.51786 7.27198 9.48149 7.12056 9.46632C6.5577 9.40991 6.46398 8.92675 6.48749 8.69223C6.51099 8.4577 6.8676 7.73544 8.10614 6.72252ZM15.6889 7.49661C15.1573 7.06186 14.7433 6.81014 14.4563 6.67049C14.4579 6.73877 14.4592 6.80678 14.4604 6.87244L14.4623 6.97792C14.4678 7.25226 14.4763 7.52803 14.5028 7.79312C14.5297 8.06174 14.5719 8.28094 14.6292 8.44531C14.6877 8.61292 14.7387 8.65727 14.7392 8.65772C14.7398 8.65816 14.7934 8.69938 14.9693 8.72338C15.1417 8.74693 15.365 8.74481 15.6336 8.71789C15.8987 8.69132 16.1706 8.64485 16.4406 8.5958L16.5444 8.5768C16.609 8.56494 16.6759 8.55265 16.7431 8.54072C16.5493 8.28714 16.2205 7.93135 15.6889 7.49661ZM14.0634 6.52266C14.0627 6.52254 14.0623 6.52246 14.0623 6.52243C14.0623 6.52239 14.0629 6.52245 14.0644 6.52266C14.0653 6.5228 14.0665 6.52299 14.068 6.52326C14.0659 6.52302 14.0643 6.52281 14.0634 6.52266ZM16.9664 8.89752C16.9665 8.89755 16.9659 8.89576 16.9645 8.89209C16.9656 8.89567 16.9663 8.8975 16.9664 8.89752ZM14.0702 5.52687C14.3047 5.50337 15.0834 5.70959 16.322 6.72252C17.5605 7.73544 17.9171 8.4577 17.9406 8.69223C17.9641 8.92675 17.8704 9.40991 17.3075 9.46632C17.1561 9.48149 16.9574 9.51787 16.7311 9.55929L16.731 9.5593C15.9059 9.71036 14.7136 9.92861 14.1062 9.43181C13.4987 8.93501 13.476 7.72317 13.4604 6.88446C13.4561 6.6544 13.4523 6.45241 13.4371 6.30096C13.3807 5.7381 13.8357 5.55037 14.0702 5.52687Z" fill="#504B43"/>
</g>
<defs>
<clipPath id="clip0_3235_6690">
<rect width="24" height="24" fill="white"/>
</clipPath>
</defs>
</svg>
