<svg width="47" height="75" viewBox="0 0 47 75" fill="none" xmlns="http://www.w3.org/2000/svg">
<path d="M23.6093 3.15772e-06C35.851 3.15772e-06 46.6937 7.73114 46.6937 22.4906C46.6937 25.583 45.0614 30.1046 44.2453 31.9788L23.6093 74.5L2.97299 31.9788C2.15688 30.1046 0.524651 25.583 0.524651 22.4906C0.524651 7.73113 11.3676 3.15772e-06 23.6093 3.15772e-06Z" fill="#FFFFF6"/>
<g clip-path="url(#clip0_857_2650)">
<path fill-rule="evenodd" clip-rule="evenodd" d="M24 13.5C24.2761 13.5 24.5 13.7239 24.5 14V18.0672C25.0545 18.1537 25.5266 18.3866 25.8833 18.7408C26.2228 19.0779 26.4374 19.5047 26.5258 19.9706H26.5264H26.5383H26.5503H26.5622H26.5742H26.5861H26.5981H26.6101H26.6221H26.6341H26.6461H26.6581H26.6701H26.6821H26.6942H26.7062H26.7182H26.7303H26.7423H26.7544H26.7665H26.7785H26.7906H26.8027H26.8148H26.8268H26.8389H26.851H26.8631H26.8752H26.8873H26.8995H26.9116H26.9237H26.9358H26.9479H26.9601H26.9722H26.9843H26.9965H27.0086H27.0208H27.0329H27.0451H27.0572H27.0694H27.0816H27.0937H27.1059H27.118H27.1302H27.1424H27.1546H27.1667H27.1789H27.1911H27.2033H27.2154H27.2276H27.2398H27.252H27.2642H27.2764H27.2886H27.3007H27.3129H27.3251H27.3373H27.3495H27.3617H27.3739H27.3861H27.3982H27.4104H27.4226H27.4348H27.447H27.4592H27.4713H27.4835H27.4957H27.5079H27.5201H27.5322H27.5444H27.5566H27.5688H27.5809H27.5931H27.6053H27.6174H27.6296H27.6417H27.6539H27.666H27.6782H27.6903H27.7025H27.7146H27.7268H27.7389H27.751H27.7631H27.7753H27.7874H27.7995H27.8116H27.8237H27.8358H27.8479H27.86H27.8721H27.8842H27.8963H27.9083H27.9204H27.9325H27.9445H27.9566H27.9686H27.9807H27.9927H28.0047H28.0168H28.0288H28.0408H28.0528H28.0648H28.0768H28.0888H28.1008H28.1128H28.1247H28.1367H28.1486H28.1606H28.1725H28.1845H28.1964H28.2083H28.2202H28.2321H28.244H28.2559H28.2678H28.2796H28.2915H28.3033H28.3152H28.327H28.3389H28.3507H28.3625H28.3743H28.3861H28.3979H28.4096H28.4214H28.4331H28.4449H28.4566H28.4683H28.4801H28.4918H28.5034H28.5151H28.5268H28.5385H28.5501H28.5617H28.5734H28.585H28.5966H28.6082H28.6198H28.6314H28.6429H28.6545H28.666H28.6775H28.689H28.7005H28.712H28.7235H28.735H28.7464H28.7579H28.7693H28.7807H28.7921H28.8035H28.8148H28.8262H28.8376H28.8489H28.8602H28.8715H28.8828H28.8941H28.9053H28.9166H28.9278H28.9391H28.9503H28.9615H28.9726H28.9838H28.9949H29.0061H29.0172H29.0283H29.0394H29.0504H29.0615H29.0725H29.0836H29.0946H29.1056H29.1165H29.1275H29.1384H29.1494H29.1603H29.1712H29.182H29.1929H29.2038H29.2146H29.2254H29.2362H29.2469H29.2577H29.2684H29.2792H29.2899H29.3006H29.3112H29.3219H29.3325H29.3431H29.3537H29.3643H29.3748H29.3854H29.3959H29.4064H29.4169H29.4273H29.4378H29.4482H29.4586H29.469H29.4793H29.4897H29.5C30.7139 19.9706 32.1971 20.4407 33.3836 21.3713C34.583 22.312 35.5 23.7426 35.5 25.6471V25.6672V25.6874V25.7075V25.7275V25.7474V25.7673V25.7872V25.8069V25.8267V25.8463V25.8659V25.8855V25.905V25.9244V25.9438V25.9631V25.9824V26.0016V26.0207V26.0398V26.0589V26.0779V26.0968V26.1157V26.1345V26.1533V26.172V26.1906V26.2092V26.2278V26.2462V26.2647V26.2831V26.3014V26.3197V26.3379V26.3561V26.3742V26.3922V26.4102V26.4282V26.4461V26.4639V26.4817V26.4995V26.5172V26.5348V26.5524V26.57V26.5875V26.6049V26.6223V26.6396V26.6569V26.6741V26.6913V26.7085V26.7255V26.7426V26.7596V26.7765V26.7934V26.8102V26.827V26.8438V26.8604V26.8771V26.8937V26.9102V26.9267V26.9432V26.9596V26.9759V26.9923V27.0085V27.0247V27.0409V27.057V27.0731V27.0891V27.1051V27.121V27.1369V27.1528V27.1686V27.1843V27.2V27.2157V27.2313V27.2469V27.2624V27.2779V27.2934V27.3088V27.3241V27.3394V27.3547V27.3699V27.3851V27.4002V27.4153V27.4304V27.4454V27.4604V27.4753V27.4902V27.505V27.5198V27.5346V27.5493V27.564V27.5786V27.5932V27.6077V27.6223V27.6367V27.6512V27.6655V27.6799V27.6942V27.7085V27.7227V27.7369V27.7511V27.7652V27.7793V27.7933V27.8073V27.8213V27.8352V27.8491V27.8629V27.8767V27.8905V27.9042V27.9179V27.9316V27.9452V27.9588V27.9724V27.9859V27.9993V28.0128V28.0262V28.0396V28.0529V28.0662V28.0795V28.0927V28.1059V28.1191V28.1322V28.1453V28.1583V28.1714V28.1844V28.1973V28.2102V28.2231V28.236V28.2488V28.2616V28.2744V28.2871V28.2998V28.3124V28.3251V28.3377V28.3502V28.3628V28.3753V28.3877V28.4002V28.4126V28.425V28.4373V28.4496V28.4619V28.4742V28.4864V28.4986V28.5108V28.5229V28.535V28.5471V28.5591V28.5712V28.5832V28.5951V28.6071V28.619V28.6309V28.6427V28.6545V28.6663V28.6781V28.6899V28.7016V28.7133V28.7249V28.7366V28.7482V28.7598V28.7713V28.7829V28.7944V28.8058V28.8173V28.8287V28.8401V28.8515V28.8629V28.8742V28.8855V28.8968V28.9081V28.9193V28.9305V28.9417V28.9529V28.964V28.9751V28.9862V28.9973V29.0084V29.0194V29.0304V29.0414V29.0523V29.0633V29.0742V29.0851V29.096V29.1068V29.1177V29.1285V29.1393V29.1501V29.1608V29.1715V29.1823V29.193V29.2036V29.2143V29.2249V29.2355V29.2461V29.2567V29.2673V29.2778V29.2883V29.2988V29.3093V29.3198V29.3303V29.3407V29.3511V29.3615V29.3719V29.3823V29.3926V29.4029V29.4133V29.4236V29.4338V29.4441V29.4544V29.4646V29.4748V29.485V29.4952V29.5054V29.5156V29.5257V29.5359V29.546V29.5561V29.5662V29.5763V29.5863V29.5964V29.6064V29.6164V29.6264V29.6364V29.6464V29.6564V29.6664V29.6763V29.6863V29.6962V29.7061V29.716V29.7259V29.7358V29.7457V29.7555V29.7654V29.7752V29.785V29.7949V29.8047V29.8145V29.8243V29.834V29.8438V29.8536V29.8633V29.8731V29.8828V29.8925V29.9023V29.912V29.9217V29.9314V29.9411V29.9507V29.9604V29.9701V29.9797V29.9894V29.999V30.0087V30.0183V30.0279V30.0376V30.0472V30.0568V30.0664V30.076V30.0856V30.0952V30.1048V30.1143V30.1239V30.1335V30.143V30.1526V30.1622V30.1717V30.1813V30.1908V30.2004V30.2099V30.2194V30.229V30.2385V30.2481V30.2576V30.2671V30.2766V30.2862V30.2957V30.3052V30.3147V30.3242V30.3338V30.3433V30.3528V30.3623V30.3718V30.3813V30.3909V30.4004V30.4099V30.4194V30.4289V30.4384V30.448V30.4575V30.467V30.4765V30.486V30.4956V30.5051V30.5146V30.5242V30.5337V30.5432V30.5528V30.5623V30.5719V30.5814V30.591V30.6006V30.6101V30.6197V30.6293V30.6388V30.6484V30.658V30.6676V30.6772V30.6868V30.6964V30.706V30.7156V30.7252V30.7349V30.7445V30.7541V30.7638V30.7734V30.7831V30.7928V30.8024V30.8121V30.8218V30.8315V30.8412V30.8509V30.8607V30.8704V30.8801V30.8899V30.8996V30.9094V30.9192V30.9289V30.9387V30.9485V30.9583V30.9682V30.978V30.9878V30.9977V31.0076V31.0174V31.0273V31.0372V31.0471V31.057V31.067V31.0769V31.0869V31.0968V31.1068V31.1168V31.1268V31.1368V31.1468V31.1569V31.1669V31.177V31.1871V31.1972V31.2073V31.2174V31.2275V31.2377V31.2479V31.258V31.2682V31.2785V31.2887V31.2989V31.3092V31.3194V31.3297V31.34V31.3504V31.3607V31.371V31.3814V31.3918V31.4022V31.4126V31.4231V31.4335V31.444V31.4545V31.465V31.4755V31.4861V31.4966V31.5072V31.5178V31.5284V31.5391V31.5497V31.5604V31.5711V31.5818V31.5926V31.6033V31.6141V31.6249V31.6357V31.6466V31.6574V31.6683V31.6792V31.6901V31.7011V31.712V31.723V31.734V31.7451V31.7561V31.7672V31.7783V31.7894V31.8006V31.8117V31.8229V31.8342V31.8454V31.8567V31.8679V31.8793V31.8906V31.902C35.5 34.0946 33.7602 36.5 30.6 36.5C29.035 36.5 28.0466 35.7943 27.1638 35.1641C27.1399 35.147 27.116 35.13 27.0922 35.113C26.194 34.4725 25.371 33.9118 24 33.9118C22.629 33.9118 21.806 34.4725 20.9078 35.113C20.884 35.13 20.8601 35.147 20.8362 35.1641C19.9534 35.7943 18.965 36.5 17.4 36.5C14.2398 36.5 12.5 34.0946 12.5 31.902V31.8906V31.8793V31.8679V31.8567V31.8454V31.8342V31.8229V31.8117V31.8006V31.7894V31.7783V31.7672V31.7561V31.7451V31.734V31.723V31.712V31.7011V31.6901V31.6792V31.6683V31.6574V31.6466V31.6357V31.6249V31.6141V31.6033V31.5926V31.5818V31.5711V31.5604V31.5497V31.5391V31.5284V31.5178V31.5072V31.4966V31.4861V31.4755V31.465V31.4545V31.444V31.4335V31.4231V31.4126V31.4022V31.3918V31.3814V31.371V31.3607V31.3504V31.34V31.3297V31.3194V31.3092V31.2989V31.2887V31.2785V31.2682V31.258V31.2479V31.2377V31.2275V31.2174V31.2073V31.1972V31.1871V31.177V31.1669V31.1569V31.1468V31.1368V31.1268V31.1168V31.1068V31.0968V31.0869V31.0769V31.067V31.057V31.0471V31.0372V31.0273V31.0174V31.0076V30.9977V30.9878V30.978V30.9682V30.9583V30.9485V30.9387V30.9289V30.9192V30.9094V30.8996V30.8899V30.8801V30.8704V30.8607V30.8509V30.8412V30.8315V30.8218V30.8121V30.8024V30.7928V30.7831V30.7734V30.7638V30.7541V30.7445V30.7349V30.7252V30.7156V30.706V30.6964V30.6868V30.6772V30.6676V30.658V30.6484V30.6388V30.6293V30.6197V30.6101V30.6006V30.591V30.5814V30.5719V30.5623V30.5528V30.5432V30.5337V30.5242V30.5146V30.5051V30.4956V30.486V30.4765V30.467V30.4575V30.448V30.4384V30.4289V30.4194V30.4099V30.4004V30.3909V30.3813V30.3718V30.3623V30.3528V30.3433V30.3338V30.3242V30.3147V30.3052V30.2957V30.2862V30.2766V30.2671V30.2576V30.2481V30.2385V30.229V30.2194V30.2099V30.2004V30.1908V30.1813V30.1717V30.1622V30.1526V30.143V30.1335V30.1239V30.1143V30.1048V30.0952V30.0856V30.076V30.0664V30.0568V30.0472V30.0376V30.0279V30.0183V30.0087V29.999V29.9894V29.9797V29.9701V29.9604V29.9507V29.9411V29.9314V29.9217V29.912V29.9023V29.8925V29.8828V29.8731V29.8633V29.8536V29.8438V29.834V29.8243V29.8145V29.8047V29.7949V29.785V29.7752V29.7654V29.7555V29.7457V29.7358V29.7259V29.716V29.7061V29.6962V29.6863V29.6763V29.6664V29.6564V29.6464V29.6364V29.6264V29.6164V29.6064V29.5964V29.5863V29.5763V29.5662V29.5561V29.546V29.5359V29.5257V29.5156V29.5054V29.4952V29.485V29.4748V29.4646V29.4544V29.4441V29.4338V29.4236V29.4133V29.4029V29.3926V29.3823V29.3719V29.3615V29.3511V29.3407V29.3303V29.3198V29.3093V29.2988V29.2883V29.2778V29.2673V29.2567V29.2461V29.2355V29.2249V29.2143V29.2036V29.193V29.1823V29.1715V29.1608V29.1501V29.1393V29.1285V29.1177V29.1068V29.096V29.0851V29.0742V29.0633V29.0523V29.0414V29.0304V29.0194V29.0084V28.9973V28.9862V28.9751V28.964V28.9529V28.9417V28.9305V28.9193V28.9081V28.8968V28.8855V28.8742V28.8629V28.8515V28.8401V28.8287V28.8173V28.8058V28.7944V28.7829V28.7713V28.7598V28.7482V28.7366V28.7249V28.7133V28.7016V28.6899V28.6781V28.6663V28.6545V28.6427V28.6309V28.619V28.6071V28.5951V28.5832V28.5712V28.5591V28.5471V28.535V28.5229V28.5108V28.4986V28.4864V28.4742V28.4619V28.4496V28.4373V28.425V28.4126V28.4002V28.3877V28.3753V28.3628V28.3502V28.3377V28.3251V28.3124V28.2998V28.2871V28.2744V28.2616V28.2488V28.236V28.2231V28.2102V28.1973V28.1844V28.1714V28.1583V28.1453V28.1322V28.1191V28.1059V28.0927V28.0795V28.0662V28.0529V28.0396V28.0262V28.0128V27.9993V27.9859V27.9724V27.9588V27.9452V27.9316V27.9179V27.9042V27.8905V27.8767V27.8629V27.8491V27.8352V27.8213V27.8073V27.7933V27.7793V27.7652V27.7511V27.7369V27.7227V27.7085V27.6942V27.6799V27.6655V27.6512V27.6367V27.6223V27.6077V27.5932V27.5786V27.564V27.5493V27.5346V27.5198V27.505V27.4902V27.4753V27.4604V27.4454V27.4304V27.4153V27.4002V27.3851V27.3699V27.3547V27.3394V27.3241V27.3088V27.2934V27.2779V27.2624V27.2469V27.2313V27.2157V27.2V27.1843V27.1686V27.1528V27.1369V27.121V27.1051V27.0891V27.0731V27.057V27.0409V27.0247V27.0085V26.9923V26.9759V26.9596V26.9432V26.9267V26.9102V26.8937V26.8771V26.8604V26.8438V26.827V26.8102V26.7934V26.7765V26.7596V26.7426V26.7255V26.7085V26.6913V26.6741V26.6569V26.6396V26.6223V26.6049V26.5875V26.57V26.5524V26.5348V26.5172V26.4995V26.4817V26.4639V26.4461V26.4282V26.4102V26.3922V26.3742V26.3561V26.3379V26.3197V26.3014V26.2831V26.2647V26.2462V26.2278V26.2092V26.1906V26.172V26.1533V26.1345V26.1157V26.0968V26.0779V26.0589V26.0398V26.0207V26.0016V25.9824V25.9631V25.9438V25.9244V25.905V25.8855V25.8659V25.8463V25.8267V25.8069V25.7872V25.7673V25.7474V25.7275V25.7075V25.6874V25.6672V25.6471C12.5 23.7426 13.417 22.312 14.6164 21.3713C15.8029 20.4407 17.2861 19.9706 18.5 19.9706H18.5059H18.5118H18.5177H18.5236H18.5295H18.5355H18.5414H18.5474H18.5533H18.5593H18.5652H18.5712H18.5772H18.5831H18.5891H18.5951H18.6011H18.6071H18.6131H18.6192H18.6252H18.6312H18.6372H18.6433H18.6493H18.6554H18.6615H18.6675H18.6736H18.6797H18.6858H18.6918H18.6979H18.704H18.7102H18.7163H18.7224H18.7285H18.7346H18.7408H18.7469H18.7531H18.7592H18.7654H18.7716H18.7777H18.7839H18.7901H18.7963H18.8025H18.8087H18.8149H18.8211H18.8273H18.8335H18.8398H18.846H18.8522H18.8585H18.8647H18.871H18.8772H18.8835H18.8898H18.896H18.9023H18.9086H18.9149H18.9212H18.9275H18.9338H18.9401H18.9464H18.9528H18.9591H18.9654H18.9718H18.9781H18.9844H18.9908H18.9972H19.0035H19.0099H19.0163H19.0226H19.029H19.0354H19.0418H19.0482H19.0546H19.061H19.0674H19.0738H19.0802H19.0867H19.0931H19.0995H19.106H19.1124H19.1189H19.1253H19.1318H19.1382H19.1447H19.1512H19.1576H19.1641H19.1706H19.1771H19.1836H19.1901H19.1966H19.2031H19.2096H19.2161H19.2226H19.2292H19.2357H19.2422H19.2488H19.2553H19.2618H19.2684H19.2749H19.2815H19.2881H19.2946H19.3012H19.3078H19.3143H19.3209H19.3275H19.3341H19.3407H19.3473H19.3539H19.3605H19.3671H19.3737H19.3803H19.3869H19.3935H19.4002H19.4068H19.4134H19.4201H19.4267H19.4334H19.44H19.4467H19.4533H19.46H19.4666H19.4733H19.48H19.4866H19.4933H19.5H19.5067H19.5134H19.52H19.5267H19.5334H19.5401H19.5468H19.5535H19.5602H19.567H19.5737H19.5804H19.5871H19.5938H19.6006H19.6073H19.614H19.6208H19.6275H19.6343H19.641H19.6477H19.6545H19.6613H19.668H19.6748H19.6815H19.6883H19.6951H19.7018H19.7086H19.7154H19.7222H19.729H19.7357H19.7425H19.7493H19.7561H19.7629H19.7697H19.7765H19.7833H19.7901H19.7969H19.8037H19.8106H19.8174H19.8242H19.831H19.8378H19.8447H19.8515H19.8583H19.8652H19.872H19.8788H19.8857H19.8925H19.8994H19.9062H19.913H19.9199H19.9268H19.9336H19.9405H19.9473H19.9542H19.961H19.9679H19.9748H19.9816H19.9885H19.9954H20.0023H20.0091H20.016H20.0229H20.0298H20.0367H20.0436H20.0504H20.0573H20.0642H20.0711H20.078H20.0849H20.0918H20.0987H20.1056H20.1125H20.1194H20.1263H20.1332H20.1401H20.1471H20.154H20.1609H20.1678H20.1747H20.1816H20.1885H20.1955H20.2024H20.2093H20.2162H20.2232H20.2301H20.237H20.2439H20.2509H20.2578H20.2647H20.2717H20.2786H20.2855H20.2925H20.2994H20.3064H20.3133H20.3202H20.3272H20.3341H20.3411H20.348H20.355H20.3619H20.3689H20.3758H20.3828H20.3897H20.3967H20.4036H20.4106H20.4175H20.4245H20.4314H20.4384H20.4453H20.4523H20.4592H20.4662H20.4732H20.4801H20.4871H20.494H20.501H20.508H20.5149H20.5219H20.5288H20.5358H20.5428H20.5497H20.5567H20.5637H20.5706H20.5776H20.5845H20.5915H20.5985H20.6054H20.6124H20.6194H20.6263H20.6333H20.6403H20.6472H20.6542H20.6612H20.6681H20.6751H20.6821H20.689H20.696H20.7029H20.7099H20.7169H20.7238H20.7308H20.7378H20.7447H20.7517H20.7587H20.7656H20.7726H20.7795H20.7865H20.7935H20.8004H20.8074H20.8143H20.8213H20.8283H20.8352H20.8422H20.8491H20.8561H20.863H20.87H20.877H20.8839H20.8909H20.8978H20.9048H20.9117H20.9187H20.9256H20.9326H20.9395H20.9465H20.9534H20.9604H20.9673H20.9742H20.9812H20.9881H20.9951H21.002H21.009H21.0159H21.0228H21.0298H21.0367H21.0436H21.0506H21.0575H21.0644H21.0714H21.0783H21.0852H21.0921H21.0991H21.106H21.1129H21.1198H21.1267H21.1337H21.1406H21.1475H21.1544H21.1613H21.1682H21.1751H21.182H21.1889H21.1958H21.2027H21.2097H21.2165H21.2234H21.2303H21.2372H21.2441H21.251H21.2579H21.2648H21.2717H21.2786H21.2854H21.2923H21.2992H21.3061H21.313H21.3198H21.3267H21.3336H21.3404H21.3473H21.3542H21.361H21.3679H21.3747H21.3816H21.3884H21.3953H21.4021H21.409H21.4158H21.4227H21.4295H21.4363H21.4432H21.45H21.4568H21.4637H21.4705H21.4742C21.5626 19.5047 21.7772 19.0779 22.1167 18.7408C22.4734 18.3866 22.9455 18.1537 23.5 18.0672V14C23.5 13.7239 23.7239 13.5 24 13.5ZM22.5043 19.9706H22.5055H22.5101H22.5148H22.5194H22.524H22.5287H22.5333H22.5379H22.5425H22.5472H22.5518H22.5564H22.561H22.5656H22.5702H22.5748H22.5794H22.584H22.5886H22.5932H22.5977H22.6023H22.6069H22.6115H22.616H22.6206H22.6252H22.6297H22.6343H22.6388H22.6434H22.6479H22.6525H22.657H22.6615H22.6661H22.6706H22.6751H22.6797H22.6842H22.6887H22.6932H22.6977H22.7022H22.7067H22.7112H22.7157H22.7202H22.7247H22.7292H22.7336H22.7381H22.7426H22.7471H22.7515H22.756H22.7604H22.7649H22.7693H22.7738H22.7782H22.7827H22.7871H22.7915H22.796H22.8004H22.8048H22.8092H22.8137H22.8181H22.8225H22.8269H22.8313H22.8357H22.8401H22.8444H22.8488H22.8532H22.8576H22.862H22.8663H22.8707H22.8751H22.8794H22.8838H22.8881H22.8925H22.8968H22.9011H22.9055H22.9098H22.9141H22.9185H22.9228H22.9271H22.9314H22.9357H22.94H22.9443H22.9486H22.9529H22.9572H22.9615H22.9657H22.97H22.9743H22.9786H22.9828H22.9871H22.9913H22.9956H22.9998H23.0041H23.0083H23.0125H23.0168H23.021H23.0252H23.0294H23.0337H23.0379H23.0421H23.0463H23.0505H23.0547H23.0589H23.063H23.0672H23.0714H23.0756H23.0797H23.0839H23.0881H23.0922H23.0964H23.1005H23.1047H23.1088H23.1129H23.1171H23.1212H23.1253H23.1294H23.1335H23.1376H23.1417H23.1458H23.1499H23.154H23.1581H23.1622H23.1663H23.1703H23.1744H23.1785H23.1825H23.1866H23.1906H23.1947H23.1987H23.2028H23.2068H23.2108H23.2148H23.2189H23.2229H23.2269H23.2309H23.2349H23.2389H23.2429H23.2469H23.2508H23.2548H23.2588H23.2628H23.2667H23.2707H23.2746H23.2786H23.2825H23.2865H23.2904H23.2943H23.2983H23.3022H23.3061H23.31H23.3139H23.3178H23.3217H23.3256H23.3295H23.3334H23.3373H23.3411H23.345H23.3489H23.3527H23.3566H23.3604H23.3643H23.3681H23.372H23.3758H23.3796H23.3834H23.3873H23.3911H23.3949H23.3987H23.4025H23.4063H23.4101H23.4138H23.4176H23.4214H23.4252H23.4289H23.4327H23.4364H23.4402H23.4439H23.4476H23.4514H23.4551H23.4588H23.4625H23.4663H23.47H23.4737H23.4774H23.4811H23.4847H23.4884H23.4921H23.4958H23.4994H23.5031H23.5067H23.5104H23.514H23.5177H23.5213H23.5249H23.5286H23.5322H23.5358H23.5394H23.543H23.5466H23.5502H23.5538H23.5574H23.5609H23.5645H23.5681H23.5716H23.5752H23.5788H23.5823H23.5858H23.5894H23.5929H23.5964H23.5999H23.6035H23.607H23.6105H23.614H23.6174H23.6209H23.6244H23.6279H23.6314H23.6348H23.6383H23.6417H23.6452H23.6486H23.6521H23.6555H23.6589H23.6623H23.6657H23.6692H23.6726H23.676H23.6793H23.6827H23.6861H23.6895H23.6929H23.6962H23.6996H23.7029H23.7063H23.7096H23.713H23.7163H23.7196H23.7229H23.7262H23.7296H23.7329H23.7361H23.7394H23.7427H23.746H23.7493H23.7525H23.7558H23.7591H23.7623H23.7656H23.7688H23.772H23.7752H23.7785H23.7817H23.7849H23.7881H23.7913H23.7945H23.7977H23.8008H23.804H23.8072H23.8104H23.8135H23.8167H23.8198H23.8229H23.8261H23.8292H23.8323H23.8354H23.8385H23.8416H23.8447H23.8478H23.8509H23.854H23.8571H23.8601H23.8632H23.8662H23.8693H23.8723H23.8754H23.8784H23.8814H23.8844H23.8874H23.8905H23.8934H23.8964H23.8994H23.9024H23.9054H23.9083H23.9113H23.9143H23.9172H23.9202H23.9231H23.926H23.929H23.9319H23.9348H23.9377H23.9406H23.9435H23.9464H23.9492H23.9521H23.955H23.9578H23.9607H23.9636H23.9664H23.9692H23.9721H23.9749H23.9777H23.9805H23.9833H23.9861H23.9889H23.9917H23.9945H23.9972H24H24.0065H24.013H24.0195H24.0261H24.0327H24.0393H24.046H24.0527H24.0594H24.0662H24.073H24.0799H24.0867H24.0936H24.1006H24.1076H24.1146H24.1216H24.1287H24.1358H24.143H24.1501H24.1573H24.1646H24.1719H24.1792H24.1865H24.1939H24.2013H24.2087H24.2162H24.2237H24.2312H24.2388H24.2464H24.254H24.2617H24.2694H24.2771H24.2849H24.2926H24.3005H24.3083H24.3162H24.3241H24.332H24.34H24.348H24.356H24.3641H24.3722H24.3803H24.3884H24.3966H24.4048H24.413H24.4213H24.4296H24.4379H24.4463H24.4546H24.4631H24.4715H24.48H24.4885H24.497H24.5055H24.5141H24.5227H24.5313H24.54H24.5487H24.5574H24.5662H24.5749H24.5837H24.5925H24.6014H24.6103H24.6192H24.6281H24.6371H24.6461H24.6551H24.6641H24.6732H24.6823H24.6914H24.7005H24.7097H24.7189H24.7281H24.7373H24.7466H24.7559H24.7652H24.7746H24.7839H24.7933H24.8027H24.8122H24.8216H24.8311H24.8407H24.8502H24.8598H24.8693H24.8789H24.8886H24.8982H24.9079H24.9176H24.9273H24.9371H24.9469H24.9567H24.9665H24.9763H24.9862H24.9961H25.006H25.0159H25.0259H25.0358H25.0458H25.0558H25.0659H25.0759H25.086H25.0961H25.1062H25.1164H25.1266H25.1367H25.147H25.1572H25.1674H25.1777H25.188H25.1983H25.2086H25.219H25.2293H25.2397H25.2501H25.2606H25.271H25.2815H25.292H25.3025H25.313H25.3236H25.3341H25.3447H25.3553H25.3659H25.3765H25.3872H25.3979H25.4086H25.4193H25.43H25.4408H25.4515H25.4623H25.4731H25.4839H25.4947H25.4957C25.429 19.767 25.3207 19.5913 25.1787 19.4504C24.9325 19.2059 24.5476 19.0294 24 19.0294C23.4524 19.0294 23.0675 19.2059 22.8213 19.4504C22.6793 19.5913 22.571 19.767 22.5043 19.9706ZM15.2336 22.1581C14.233 22.9429 13.5 24.1005 13.5 25.6471V25.6672V25.6874V25.7075V25.7275V25.7474V25.7673V25.7872V25.8069V25.8267V25.8463V25.8659V25.8855V25.905V25.9244V25.9438V25.9631V25.9824V26.0016V26.0207V26.0398V26.0589V26.0779V26.0968V26.1157V26.1345V26.1533V26.172V26.1906V26.2092V26.2278V26.2462V26.2647V26.2831V26.3014V26.3197V26.3379V26.3561V26.3742V26.3922V26.4102V26.4282V26.4461V26.4639V26.4817V26.4995V26.5172V26.5348V26.5524V26.57V26.5875V26.6049V26.6223V26.6396V26.6569V26.6741V26.6913V26.7085V26.7255V26.7426V26.7596V26.7765V26.7934V26.8102V26.827V26.8438V26.8604V26.8771V26.8937V26.9102V26.9267V26.9432V26.9596V26.9759V26.9923V27.0085V27.0247V27.0409V27.057V27.0731V27.0891V27.1051V27.121V27.1369V27.1528V27.1686V27.1843V27.2V27.2157V27.2313V27.2469V27.2624V27.2779V27.2934V27.3088V27.3241V27.3394V27.3547V27.3699V27.3851V27.4002V27.4153V27.4304V27.4454V27.4604V27.4753V27.4902V27.505V27.5198V27.5346V27.5493V27.564V27.5786V27.5932V27.6077V27.6223V27.6367V27.6512V27.6655V27.6799V27.6942V27.7085V27.7227V27.7369V27.7511V27.7652V27.7793V27.7933V27.8073V27.8213V27.8352V27.8491V27.8629V27.8767V27.8905V27.9042V27.9179V27.9316V27.9452V27.9588V27.9724V27.9859V27.9993V28.0128V28.0262V28.0396V28.0529V28.0662V28.0795V28.0927V28.1059V28.1191V28.1322V28.1453V28.1583V28.1714V28.1844V28.1973V28.2102V28.2231V28.236V28.2488V28.2616V28.2744V28.2871V28.2998V28.3124V28.3251V28.3377V28.3502V28.3628V28.3753V28.3877V28.4002V28.4126V28.425V28.4373V28.4496V28.4619V28.4742V28.4864V28.4986V28.5108V28.5229V28.535V28.5471V28.5591V28.5712V28.5832V28.5951V28.6071V28.619V28.6309V28.6427V28.6545V28.6663V28.6781V28.6899V28.7016V28.7133V28.7249V28.7366V28.7482V28.7598V28.7713V28.7829V28.7944V28.8058V28.8173V28.8287V28.8401V28.8515V28.8629V28.8742V28.8855V28.8968V28.9081V28.9193V28.9305V28.9417V28.9529V28.964V28.9751V28.9862V28.9973V29.0084V29.0194V29.0304V29.0414V29.0523V29.0633V29.0742V29.0851V29.096V29.1068V29.1177V29.1285V29.1393V29.1501V29.1608V29.1715V29.1823V29.193V29.2036V29.2143V29.2249V29.2355V29.2461V29.2567V29.2673V29.2778V29.2883V29.2988V29.3093V29.3198V29.3303V29.3407V29.3511V29.3615V29.3719V29.3823V29.3926V29.4029V29.4133V29.4236V29.4338V29.4441V29.4544V29.4646V29.4748V29.485V29.4952V29.5054V29.5156V29.5257V29.5359V29.546V29.5561V29.5662V29.5763V29.5863V29.5964V29.6064V29.6164V29.6264V29.6364V29.6464V29.6564V29.6664V29.6763V29.6863V29.6962V29.7061V29.716V29.7259V29.7358V29.7457V29.7555V29.7654V29.7752V29.785V29.7949V29.8047V29.8145V29.8243V29.834V29.8438V29.8536V29.8633V29.8731V29.8828V29.8925V29.9023V29.912V29.9217V29.9314V29.9411V29.9507V29.9604V29.9701V29.9797V29.9894V29.999V30.0087V30.0183V30.0279V30.0376V30.0472V30.0568V30.0664V30.076V30.0856V30.0952V30.1048V30.1143V30.1239V30.1335V30.143V30.1526V30.1622V30.1717V30.1813V30.1908V30.2004V30.2099V30.2194V30.229V30.2385V30.2481V30.2576V30.2671V30.2766V30.2862V30.2957V30.3052V30.3147V30.3242V30.3338V30.3433V30.3528V30.3623V30.3718V30.3813V30.3909V30.4004V30.4099V30.4194V30.4289V30.4384V30.448V30.4575V30.467V30.4765V30.486V30.4956V30.5051V30.5146V30.5242V30.5337V30.5432V30.5528V30.5623V30.5719V30.5814V30.591V30.6006V30.6101V30.6197V30.6293V30.6388V30.6484V30.658V30.6676V30.6772V30.6868V30.6964V30.706V30.7156V30.7252V30.7349V30.7445V30.7541V30.7638V30.7734V30.7831V30.7928V30.8024V30.8121V30.8218V30.8315V30.8412V30.8509V30.8607V30.8704V30.8801V30.8899V30.8996V30.9094V30.9192V30.9289V30.9387V30.9485V30.9583V30.9682V30.978V30.9878V30.9977V31.0076V31.0174V31.0273V31.0372V31.0471V31.057V31.067V31.0769V31.0869V31.0968V31.1068V31.1168V31.1268V31.1368V31.1468V31.1569V31.1669V31.177V31.1871V31.1972V31.2073V31.2174V31.2275V31.2377V31.2479V31.258V31.2682V31.2785V31.2887V31.2989V31.3092V31.3194V31.3297V31.34V31.3504V31.3607V31.371V31.3814V31.3918V31.4022V31.4126V31.4231V31.4335V31.444V31.4545V31.465V31.4755V31.4861V31.4966V31.5072V31.5178V31.5284V31.5391V31.5497V31.5604V31.5711V31.5818V31.5926V31.6033V31.6141V31.6249V31.6357V31.6466V31.6574V31.6683V31.6792V31.6901V31.7011V31.712V31.723V31.734V31.7451V31.7561V31.7672V31.7783V31.7894V31.8006V31.8117V31.8229V31.8342V31.8454V31.8567V31.8679V31.8793V31.8906V31.902C13.5 33.5916 14.8402 35.5 17.4 35.5C18.6426 35.5 19.4013 34.959 20.3056 34.3142L20.3272 34.2988C21.244 33.6451 22.291 32.9118 24 32.9118C25.709 32.9118 26.756 33.6451 27.6728 34.2988L27.6944 34.3142C28.5987 34.959 29.3574 35.5 30.6 35.5C33.1598 35.5 34.5 33.5916 34.5 31.902V31.8906V31.8793V31.8679V31.8567V31.8454V31.8342V31.8229V31.8117V31.8006V31.7894V31.7783V31.7672V31.7561V31.7451V31.734V31.723V31.712V31.7011V31.6901V31.6792V31.6683V31.6574V31.6466V31.6357V31.6249V31.6141V31.6033V31.5926V31.5818V31.5711V31.5604V31.5497V31.5391V31.5284V31.5178V31.5072V31.4966V31.4861V31.4755V31.465V31.4545V31.444V31.4335V31.4231V31.4126V31.4022V31.3918V31.3814V31.371V31.3607V31.3504V31.34V31.3297V31.3194V31.3092V31.2989V31.2887V31.2785V31.2682V31.258V31.2479V31.2377V31.2275V31.2174V31.2073V31.1972V31.1871V31.177V31.1669V31.1569V31.1468V31.1368V31.1268V31.1168V31.1068V31.0968V31.0869V31.0769V31.067V31.057V31.0471V31.0372V31.0273V31.0174V31.0076V30.9977V30.9878V30.978V30.9682V30.9583V30.9485V30.9387V30.9289V30.9192V30.9094V30.8996V30.8899V30.8801V30.8704V30.8607V30.8509V30.8412V30.8315V30.8218V30.8121V30.8024V30.7928V30.7831V30.7734V30.7638V30.7541V30.7445V30.7349V30.7252V30.7156V30.706V30.6964V30.6868V30.6772V30.6676V30.658V30.6484V30.6388V30.6293V30.6197V30.6101V30.6006V30.591V30.5814V30.5719V30.5623V30.5528V30.5432V30.5337V30.5242V30.5146V30.5051V30.4956V30.486V30.4765V30.467V30.4575V30.448V30.4384V30.4289V30.4194V30.4099V30.4004V30.3909V30.3813V30.3718V30.3623V30.3528V30.3433V30.3338V30.3242V30.3147V30.3052V30.2957V30.2862V30.2766V30.2671V30.2576V30.2481V30.2385V30.229V30.2194V30.2099V30.2004V30.1908V30.1813V30.1717V30.1622V30.1526V30.143V30.1335V30.1239V30.1143V30.1048V30.0952V30.0856V30.076V30.0664V30.0568V30.0472V30.0376V30.0279V30.0183V30.0087V29.999V29.9894V29.9797V29.9701V29.9604V29.9507V29.9411V29.9314V29.9217V29.912V29.9023V29.8925V29.8828V29.8731V29.8633V29.8536V29.8438V29.834V29.8243V29.8145V29.8047V29.7949V29.785V29.7752V29.7654V29.7555V29.7457V29.7358V29.7259V29.716V29.7061V29.6962V29.6863V29.6763V29.6664V29.6564V29.6464V29.6364V29.6264V29.6164V29.6064V29.5964V29.5863V29.5763V29.5662V29.5561V29.546V29.5359V29.5257V29.5156V29.5054V29.4952V29.485V29.4748V29.4646V29.4544V29.4441V29.4338V29.4236V29.4133V29.4029V29.3926V29.3823V29.3719V29.3615V29.3511V29.3407V29.3303V29.3198V29.3093V29.2988V29.2883V29.2778V29.2673V29.2567V29.2461V29.2355V29.2249V29.2143V29.2036V29.193V29.1823V29.1715V29.1608V29.1501V29.1393V29.1285V29.1177V29.1068V29.096V29.0851V29.0742V29.0633V29.0523V29.0414V29.0304V29.0194V29.0084V28.9973V28.9862V28.9751V28.964V28.9529V28.9417V28.9305V28.9193V28.9081V28.8968V28.8855V28.8742V28.8629V28.8515V28.8401V28.8287V28.8173V28.8058V28.7944V28.7829V28.7713V28.7598V28.7482V28.7366V28.7249V28.7133V28.7016V28.6899V28.6781V28.6663V28.6545V28.6427V28.6309V28.619V28.6071V28.5951V28.5832V28.5712V28.5591V28.5471V28.535V28.5229V28.5108V28.4986V28.4864V28.4742V28.4619V28.4496V28.4373V28.425V28.4126V28.4002V28.3877V28.3753V28.3628V28.3502V28.3377V28.3251V28.3124V28.2998V28.2871V28.2744V28.2616V28.2488V28.236V28.2231V28.2102V28.1973V28.1844V28.1714V28.1583V28.1453V28.1322V28.1191V28.1059V28.0927V28.0795V28.0662V28.0529V28.0396V28.0262V28.0128V27.9993V27.9859V27.9724V27.9588V27.9452V27.9316V27.9179V27.9042V27.8905V27.8767V27.8629V27.8491V27.8352V27.8213V27.8073V27.7933V27.7793V27.7652V27.7511V27.7369V27.7227V27.7085V27.6942V27.6799V27.6655V27.6512V27.6367V27.6223V27.6077V27.5932V27.5786V27.564V27.5493V27.5346V27.5198V27.505V27.4902V27.4753V27.4604V27.4454V27.4304V27.4153V27.4002V27.3851V27.3699V27.3547V27.3394V27.3241V27.3088V27.2934V27.2779V27.2624V27.2469V27.2313V27.2157V27.2V27.1843V27.1686V27.1528V27.1369V27.121V27.1051V27.0891V27.0731V27.057V27.0409V27.0247V27.0085V26.9923V26.9759V26.9596V26.9432V26.9267V26.9102V26.8937V26.8771V26.8604V26.8438V26.827V26.8102V26.7934V26.7765V26.7596V26.7426V26.7255V26.7085V26.6913V26.6741V26.6569V26.6396V26.6223V26.6049V26.5875V26.57V26.5524V26.5348V26.5172V26.4995V26.4817V26.4639V26.4461V26.4282V26.4102V26.3922V26.3742V26.3561V26.3379V26.3197V26.3014V26.2831V26.2647V26.2462V26.2278V26.2092V26.1906V26.172V26.1533V26.1345V26.1157V26.0968V26.0779V26.0589V26.0398V26.0207V26.0016V25.9824V25.9631V25.9438V25.9244V25.905V25.8855V25.8659V25.8463V25.8267V25.8069V25.7872V25.7673V25.7474V25.7275V25.7075V25.6874V25.6672V25.6471C34.5 24.1005 33.767 22.9429 32.7664 22.1581C31.7529 21.3632 30.4861 20.9706 29.5 20.9706H29.4897H29.4793H29.469H29.4586H29.4482H29.4378H29.4273H29.4169H29.4064H29.3959H29.3854H29.3748H29.3643H29.3537H29.3431H29.3325H29.3219H29.3112H29.3006H29.2899H29.2792H29.2684H29.2577H29.2469H29.2362H29.2254H29.2146H29.2038H29.1929H29.182H29.1712H29.1603H29.1494H29.1384H29.1275H29.1165H29.1056H29.0946H29.0836H29.0725H29.0615H29.0504H29.0394H29.0283H29.0172H29.0061H28.9949H28.9838H28.9726H28.9615H28.9503H28.9391H28.9278H28.9166H28.9053H28.8941H28.8828H28.8715H28.8602H28.8489H28.8376H28.8262H28.8148H28.8035H28.7921H28.7807H28.7693H28.7579H28.7464H28.735H28.7235H28.712H28.7005H28.689H28.6775H28.666H28.6545H28.6429H28.6314H28.6198H28.6082H28.5966H28.585H28.5734H28.5617H28.5501H28.5385H28.5268H28.5151H28.5034H28.4918H28.4801H28.4683H28.4566H28.4449H28.4331H28.4214H28.4096H28.3979H28.3861H28.3743H28.3625H28.3507H28.3389H28.327H28.3152H28.3033H28.2915H28.2796H28.2678H28.2559H28.244H28.2321H28.2202H28.2083H28.1964H28.1845H28.1725H28.1606H28.1486H28.1367H28.1247H28.1128H28.1008H28.0888H28.0768H28.0648H28.0528H28.0408H28.0288H28.0168H28.0047H27.9927H27.9807H27.9686H27.9566H27.9445H27.9325H27.9204H27.9083H27.8963H27.8842H27.8721H27.86H27.8479H27.8358H27.8237H27.8116H27.7995H27.7874H27.7753H27.7631H27.751H27.7389H27.7268H27.7146H27.7025H27.6903H27.6782H27.666H27.6539H27.6417H27.6296H27.6174H27.6053H27.5931H27.5809H27.5688H27.5566H27.5444H27.5322H27.5201H27.5079H27.4957H27.4835H27.4713H27.4592H27.447H27.4348H27.4226H27.4104H27.3982H27.3861H27.3739H27.3617H27.3495H27.3373H27.3251H27.3129H27.3007H27.2886H27.2764H27.2642H27.252H27.2398H27.2276H27.2154H27.2033H27.1911H27.1789H27.1667H27.1546H27.1424H27.1302H27.118H27.1059H27.0937H27.0816H27.0694H27.0572H27.0451H27.0329H27.0208H27.0086H26.9965H26.9843H26.9722H26.9601H26.9479H26.9358H26.9237H26.9116H26.8995H26.8873H26.8752H26.8631H26.851H26.8389H26.8268H26.8148H26.8027H26.7906H26.7785H26.7665H26.7544H26.7423H26.7303H26.7182H26.7062H26.6942H26.6821H26.6701H26.6581H26.6461H26.6341H26.6221H26.6101H26.5981H26.5861H26.5742H26.5622H26.5503H26.5383H26.5264H26.5144H26.5025H26.4906H26.4787H26.4668H26.4549H26.443H26.4311H26.4192H26.4074H26.3955H26.3837H26.3718H26.36H26.3482H26.3364H26.3246H26.3128H26.301H26.2892H26.2774H26.2657H26.2539H26.2422H26.2305H26.2188H26.207H26.1954H26.1837H26.172H26.1603H26.1487H26.137H26.1254H26.1138H26.1022H26.0906H26.079H26.0674H26.0558H26.0443H26.0327H26.0212H26.0097H25.9982H25.9867H25.9752H25.9637H25.9523H25.9409H25.9294H25.918H25.9066H25.8952H25.8838H25.8725H25.8611H25.8498H25.8385H25.8271H25.8158H25.8046H25.7933H25.782H25.7708H25.7596H25.7484H25.7372H25.726H25.7148H25.7037H25.6925H25.6814H25.6703H25.6592H25.6481H25.6371H25.626H25.615H25.604H25.593H25.582H25.571H25.5601H25.5491H25.5382H25.5273H25.5165H25.5056H25.4947H25.4839H25.4731H25.4623H25.4515H25.4408H25.43H25.4193H25.4086H25.3979H25.3872H25.3765H25.3659H25.3553H25.3447H25.3341H25.3236H25.313H25.3025H25.292H25.2815H25.271H25.2606H25.2501H25.2397H25.2293H25.219H25.2086H25.1983H25.188H25.1777H25.1674H25.1572H25.147H25.1367H25.1266H25.1164H25.1062H25.0961H25.086H25.0759H25.0659H25.0558H25.0458H25.0358H25.0259H25.0159H25.006H24.9961H24.9862H24.9763H24.9665H24.9567H24.9469H24.9371H24.9273H24.9176H24.9079H24.8982H24.8886H24.8789H24.8693H24.8598H24.8502H24.8407H24.8311H24.8216H24.8122H24.8027H24.7933H24.7839H24.7746H24.7652H24.7559H24.7466H24.7373H24.7281H24.7189H24.7097H24.7005H24.6914H24.6823H24.6732H24.6641H24.6551H24.6461H24.6371H24.6281H24.6192H24.6103H24.6014H24.5925H24.5837H24.5749H24.5662H24.5574H24.5487H24.54H24.5313H24.5227H24.5141H24.5055H24.497H24.4885H24.48H24.4715H24.4631H24.4546H24.4463H24.4379H24.4296H24.4213H24.413H24.4048H24.3966H24.3884H24.3803H24.3722H24.3641H24.356H24.348H24.34H24.332H24.3241H24.3162H24.3083H24.3005H24.2926H24.2849H24.2771H24.2694H24.2617H24.254H24.2464H24.2388H24.2312H24.2237H24.2162H24.2087H24.2013H24.1939H24.1865H24.1792H24.1719H24.1646H24.1573H24.1501H24.143H24.1358H24.1287H24.1216H24.1146H24.1076H24.1006H24.0936H24.0867H24.0799H24.073H24.0662H24.0594H24.0527H24.046H24.0393H24.0327H24.0261H24.0195H24.013H24.0065H24H23.9972H23.9945H23.9917H23.9889H23.9861H23.9833H23.9805H23.9777H23.9749H23.9721H23.9692H23.9664H23.9636H23.9607H23.9578H23.955H23.9521H23.9492H23.9464H23.9435H23.9406H23.9377H23.9348H23.9319H23.929H23.926H23.9231H23.9202H23.9172H23.9143H23.9113H23.9083H23.9054H23.9024H23.8994H23.8964H23.8934H23.8905H23.8874H23.8844H23.8814H23.8784H23.8754H23.8723H23.8693H23.8662H23.8632H23.8601H23.8571H23.854H23.8509H23.8478H23.8447H23.8416H23.8385H23.8354H23.8323H23.8292H23.8261H23.8229H23.8198H23.8167H23.8135H23.8104H23.8072H23.804H23.8008H23.7977H23.7945H23.7913H23.7881H23.7849H23.7817H23.7785H23.7752H23.772H23.7688H23.7656H23.7623H23.7591H23.7558H23.7525H23.7493H23.746H23.7427H23.7394H23.7361H23.7329H23.7296H23.7262H23.7229H23.7196H23.7163H23.713H23.7096H23.7063H23.7029H23.6996H23.6962H23.6929H23.6895H23.6861H23.6827H23.6793H23.676H23.6726H23.6692H23.6657H23.6623H23.6589H23.6555H23.6521H23.6486H23.6452H23.6417H23.6383H23.6348H23.6314H23.6279H23.6244H23.6209H23.6174H23.614H23.6105H23.607H23.6035H23.5999H23.5964H23.5929H23.5894H23.5858H23.5823H23.5788H23.5752H23.5716H23.5681H23.5645H23.5609H23.5574H23.5538H23.5502H23.5466H23.543H23.5394H23.5358H23.5322H23.5286H23.5249H23.5213H23.5177H23.514H23.5104H23.5067H23.5031H23.4994H23.4958H23.4921H23.4884H23.4847H23.4811H23.4774H23.4737H23.47H23.4663H23.4625H23.4588H23.4551H23.4514H23.4476H23.4439H23.4402H23.4364H23.4327H23.4289H23.4252H23.4214H23.4176H23.4138H23.4101H23.4063H23.4025H23.3987H23.3949H23.3911H23.3873H23.3834H23.3796H23.3758H23.372H23.3681H23.3643H23.3604H23.3566H23.3527H23.3489H23.345H23.3411H23.3373H23.3334H23.3295H23.3256H23.3217H23.3178H23.3139H23.31H23.3061H23.3022H23.2983H23.2943H23.2904H23.2865H23.2825H23.2786H23.2746H23.2707H23.2667H23.2628H23.2588H23.2548H23.2508H23.2469H23.2429H23.2389H23.2349H23.2309H23.2269H23.2229H23.2189H23.2148H23.2108H23.2068H23.2028H23.1987H23.1947H23.1906H23.1866H23.1825H23.1785H23.1744H23.1703H23.1663H23.1622H23.1581H23.154H23.1499H23.1458H23.1417H23.1376H23.1335H23.1294H23.1253H23.1212H23.1171H23.1129H23.1088H23.1047H23.1005H23.0964H23.0922H23.0881H23.0839H23.0797H23.0756H23.0714H23.0672H23.063H23.0589H23.0547H23.0505H23.0463H23.0421H23.0379H23.0337H23.0294H23.0252H23.021H23.0168H23.0125H23.0083H23.0041H22.9998H22.9956H22.9913H22.9871H22.9828H22.9786H22.9743H22.97H22.9657H22.9615H22.9572H22.9529H22.9486H22.9443H22.94H22.9357H22.9314H22.9271H22.9228H22.9185H22.9141H22.9098H22.9055H22.9011H22.8968H22.8925H22.8881H22.8838H22.8794H22.8751H22.8707H22.8663H22.862H22.8576H22.8532H22.8488H22.8444H22.8401H22.8357H22.8313H22.8269H22.8225H22.8181H22.8137H22.8092H22.8048H22.8004H22.796H22.7915H22.7871H22.7827H22.7782H22.7738H22.7693H22.7649H22.7604H22.756H22.7515H22.7471H22.7426H22.7381H22.7336H22.7292H22.7247H22.7202H22.7157H22.7112H22.7067H22.7022H22.6977H22.6932H22.6887H22.6842H22.6797H22.6751H22.6706H22.6661H22.6615H22.657H22.6525H22.6479H22.6434H22.6388H22.6343H22.6297H22.6252H22.6206H22.616H22.6115H22.6069H22.6023H22.5977H22.5932H22.5886H22.584H22.5794H22.5748H22.5702H22.5656H22.561H22.5564H22.5518H22.5472H22.5425H22.5379H22.5333H22.5287H22.524H22.5194H22.5148H22.5101H22.5055H22.5008H22.4962H22.4915H22.4869H22.4822H22.4776H22.4729H22.4682H22.4635H22.4589H22.4542H22.4495H22.4448H22.4401H22.4355H22.4308H22.4261H22.4214H22.4167H22.412H22.4073H22.4025H22.3978H22.3931H22.3884H22.3837H22.3789H22.3742H22.3695H22.3648H22.36H22.3553H22.3505H22.3458H22.341H22.3363H22.3315H22.3268H22.322H22.3173H22.3125H22.3077H22.303H22.2982H22.2934H22.2886H22.2838H22.2791H22.2743H22.2695H22.2647H22.2599H22.2551H22.2503H22.2455H22.2407H22.2359H22.2311H22.2262H22.2214H22.2166H22.2118H22.207H22.2021H22.1973H22.1925H22.1876H22.1828H22.178H22.1731H22.1683H22.1634H22.1586H22.1537H22.1489H22.144H22.1392H22.1343H22.1294H22.1246H22.1197H22.1148H22.1099H22.1051H22.1002H22.0953H22.0904H22.0855H22.0806H22.0758H22.0709H22.066H22.0611H22.0562H22.0513H22.0464H22.0414H22.0365H22.0316H22.0267H22.0218H22.0169H22.0119H22.007H22.0021H21.9972H21.9922H21.9873H21.9824H21.9774H21.9725H21.9676H21.9626H21.9577H21.9527H21.9478H21.9428H21.9379H21.9329H21.9279H21.9213H21.9147H21.9081H21.9014H21.8948H21.8882H21.8815H21.8749H21.8683H21.8616H21.855H21.8483H21.8416H21.835H21.8283H21.8216H21.815H21.8083H21.8016H21.7949H21.7882H21.7815H21.7748H21.7681H21.7614H21.7547H21.748H21.7413H21.7346H21.7279H21.7212H21.7144H21.7077H21.701H21.6943H21.6875H21.6808H21.674H21.6673H21.6606H21.6538H21.647H21.6403H21.6335H21.6268H21.62H21.6132H21.6065H21.5997H21.5929H21.5861H21.5794H21.5726H21.5658H21.559H21.5522H21.5454H21.5386H21.5318H21.525H21.5182H21.5114H21.5046H21.4978H21.491H21.4841H21.4773H21.4705H21.4637H21.4568H21.45H21.4432H21.4363H21.4295H21.4227H21.4158H21.409H21.4021H21.3953H21.3884H21.3816H21.3747H21.3679H21.361H21.3542H21.3473H21.3404H21.3336H21.3267H21.3198H21.313H21.3061H21.2992H21.2923H21.2854H21.2786H21.2717H21.2648H21.2579H21.251H21.2441H21.2372H21.2303H21.2234H21.2165H21.2097H21.2027H21.1958H21.1889H21.182H21.1751H21.1682H21.1613H21.1544H21.1475H21.1406H21.1337H21.1267H21.1198H21.1129H21.106H21.0991H21.0921H21.0852H21.0783H21.0714H21.0644H21.0575H21.0506H21.0436H21.0367H21.0298H21.0228H21.0159H21.009H21.002H20.9951H20.9881H20.9812H20.9742H20.9673H20.9604H20.9534H20.9465H20.9395H20.9326H20.9256H20.9187H20.9117H20.9048H20.8978H20.8909H20.8839H20.877H20.87H20.863H20.8561H20.8491H20.8422H20.8352H20.8283H20.8213H20.8143H20.8074H20.8004H20.7935H20.7865H20.7795H20.7726H20.7656H20.7587H20.7517H20.7447H20.7378H20.7308H20.7238H20.7169H20.7099H20.7029H20.696H20.689H20.6821H20.6751H20.6681H20.6612H20.6542H20.6472H20.6403H20.6333H20.6263H20.6194H20.6124H20.6054H20.5985H20.5915H20.5845H20.5776H20.5706H20.5637H20.5567H20.5497H20.5428H20.5358H20.5288H20.5219H20.5149H20.508H20.501H20.494H20.4871H20.4801H20.4732H20.4662H20.4592H20.4523H20.4453H20.4384H20.4314H20.4245H20.4175H20.4106H20.4036H20.3967H20.3897H20.3828H20.3758H20.3689H20.3619H20.355H20.348H20.3411H20.3341H20.3272H20.3202H20.3133H20.3064H20.2994H20.2925H20.2855H20.2786H20.2717H20.2647H20.2578H20.2509H20.2439H20.237H20.2301H20.2232H20.2162H20.2093H20.2024H20.1955H20.1885H20.1816H20.1747H20.1678H20.1609H20.154H20.1471H20.1401H20.1332H20.1263H20.1194H20.1125H20.1056H20.0987H20.0918H20.0849H20.078H20.0711H20.0642H20.0573H20.0504H20.0436H20.0367H20.0298H20.0229H20.016H20.0091H20.0023H19.9954H19.9885H19.9816H19.9748H19.9679H19.961H19.9542H19.9473H19.9405H19.9336H19.9268H19.9199H19.913H19.9062H19.8994H19.8925H19.8857H19.8788H19.872H19.8652H19.8583H19.8515H19.8447H19.8378H19.831H19.8242H19.8174H19.8106H19.8037H19.7969H19.7901H19.7833H19.7765H19.7697H19.7629H19.7561H19.7493H19.7425H19.7357H19.729H19.7222H19.7154H19.7086H19.7018H19.6951H19.6883H19.6815H19.6748H19.668H19.6613H19.6545H19.6477H19.641H19.6343H19.6275H19.6208H19.614H19.6073H19.6006H19.5938H19.5871H19.5804H19.5737H19.567H19.5602H19.5535H19.5468H19.5401H19.5334H19.5267H19.52H19.5134H19.5067H19.5H19.4933H19.4866H19.48H19.4733H19.4666H19.46H19.4533H19.4467H19.44H19.4334H19.4267H19.4201H19.4134H19.4068H19.4002H19.3935H19.3869H19.3803H19.3737H19.3671H19.3605H19.3539H19.3473H19.3407H19.3341H19.3275H19.3209H19.3143H19.3078H19.3012H19.2946H19.2881H19.2815H19.2749H19.2684H19.2618H19.2553H19.2488H19.2422H19.2357H19.2292H19.2226H19.2161H19.2096H19.2031H19.1966H19.1901H19.1836H19.1771H19.1706H19.1641H19.1576H19.1512H19.1447H19.1382H19.1318H19.1253H19.1189H19.1124H19.106H19.0995H19.0931H19.0867H19.0802H19.0738H19.0674H19.061H19.0546H19.0482H19.0418H19.0354H19.029H19.0226H19.0163H19.0099H19.0035H18.9972H18.9908H18.9844H18.9781H18.9718H18.9654H18.9591H18.9528H18.9464H18.9401H18.9338H18.9275H18.9212H18.9149H18.9086H18.9023H18.896H18.8898H18.8835H18.8772H18.871H18.8647H18.8585H18.8522H18.846H18.8398H18.8335H18.8273H18.8211H18.8149H18.8087H18.8025H18.7963H18.7901H18.7839H18.7777H18.7716H18.7654H18.7592H18.7531H18.7469H18.7408H18.7346H18.7285H18.7224H18.7163H18.7102H18.704H18.6979H18.6918H18.6858H18.6797H18.6736H18.6675H18.6615H18.6554H18.6493H18.6433H18.6372H18.6312H18.6252H18.6192H18.6131H18.6071H18.6011H18.5951H18.5891H18.5831H18.5772H18.5712H18.5652H18.5593H18.5533H18.5474H18.5414H18.5355H18.5295H18.5236H18.5177H18.5118H18.5059H18.5C17.5139 20.9706 16.2471 21.3632 15.2336 22.1581ZM17.4 26.0098C17.6761 26.0098 17.9 26.2337 17.9 26.5098V27.7353H19.16C19.4361 27.7353 19.66 27.9592 19.66 28.2353C19.66 28.5114 19.4361 28.7353 19.16 28.7353H17.9V29.9608C17.9 30.2369 17.6761 30.4608 17.4 30.4608C17.1239 30.4608 16.9 30.2369 16.9 29.9608V28.7353H15.64C15.3639 28.7353 15.14 28.5114 15.14 28.2353C15.14 27.9592 15.3639 27.7353 15.64 27.7353H16.9V26.5098C16.9 26.2337 17.1239 26.0098 17.4 26.0098ZM29.94 26.4412C30.2161 26.4412 30.44 26.665 30.44 26.9412V27.1569C30.44 27.433 30.2161 27.6569 29.94 27.6569C29.6639 27.6569 29.44 27.433 29.44 27.1569V26.9412C29.44 26.665 29.6639 26.4412 29.94 26.4412ZM21.52 28.2353C21.52 27.9592 21.7439 27.7353 22.02 27.7353H25.76C26.0361 27.7353 26.26 27.9592 26.26 28.2353C26.26 28.5114 26.0361 28.7353 25.76 28.7353H22.02C21.7439 28.7353 21.52 28.5114 21.52 28.2353ZM28.12 28.2353C28.12 27.9592 28.3439 27.7353 28.62 27.7353H28.84C29.1161 27.7353 29.34 27.9592 29.34 28.2353C29.34 28.5114 29.1161 28.7353 28.84 28.7353H28.62C28.3439 28.7353 28.12 28.5114 28.12 28.2353ZM30.54 28.2353C30.54 27.9592 30.7639 27.7353 31.04 27.7353H31.26C31.5361 27.7353 31.76 27.9592 31.76 28.2353C31.76 28.5114 31.5361 28.7353 31.26 28.7353H31.04C30.7639 28.7353 30.54 28.5114 30.54 28.2353ZM29.94 28.8137C30.2161 28.8137 30.44 29.0376 30.44 29.3137V29.5294C30.44 29.8056 30.2161 30.0294 29.94 30.0294C29.6639 30.0294 29.44 29.8056 29.44 29.5294V29.3137C29.44 29.0376 29.6639 28.8137 29.94 28.8137Z" fill="#504B43"/>
</g>
<defs>
<clipPath id="clip0_857_2650">
<rect width="24" height="24" fill="white" transform="translate(12 13)"/>
</clipPath>
</defs>
</svg>
