<svg width="47" height="75" viewBox="0 0 47 75" fill="none" xmlns="http://www.w3.org/2000/svg">
<path d="M23.6093 3.15772e-06C35.851 3.15772e-06 46.6937 7.73114 46.6937 22.4906C46.6937 25.583 45.0614 30.1046 44.2453 31.9788L23.6093 74.5L2.97299 31.9788C2.15688 30.1046 0.524651 25.583 0.524651 22.4906C0.524651 7.73113 11.3676 3.15772e-06 23.6093 3.15772e-06Z" fill="#FFFFF6"/>
<g clip-path="url(#clip0_857_2650)">
<path fill-rule="evenodd" clip-rule="evenodd" d="M16 13.5C14.6193 13.5 13.5 14.6193 13.5 16C13.5 17.3807 14.6193 18.5 16 18.5H16.5V20.5H14C12.6193 20.5 11.5 21.6193 11.5 23C11.5 24.3807 12.6193 25.5 14 25.5H15.5V28C15.5 28.1753 15.5301 28.3436 15.5854 28.5H10C9.72386 28.5 9.5 28.7239 9.5 29C9.5 29.2761 9.72386 29.5 10 29.5H17H17.463H29H36C36.2761 29.5 36.5 29.2761 36.5 29C36.5 28.7239 36.2761 28.5 36 28.5H30.4146C30.4699 28.3436 30.5 28.1753 30.5 28V25.5H32C33.3807 25.5 34.5 24.3807 34.5 23C34.5 21.6193 33.3807 20.5 32 20.5H29.5V18.5H30C31.3807 18.5 32.5 17.3807 32.5 16C32.5 14.6193 31.3807 13.5 30 13.5H16ZM28.5 18.5V20.5H17.5V18.5H28.5ZM14.5 16C14.5 15.1716 15.1716 14.5 16 14.5H30C30.8284 14.5 31.5 15.1716 31.5 16C31.5 16.8284 30.8284 17.5 30 17.5H16C15.1716 17.5 14.5 16.8284 14.5 16ZM30 24.5H30.5H32C32.8284 24.5 33.5 23.8284 33.5 23C33.5 22.1716 32.8284 21.5 32 21.5H14C13.1716 21.5 12.5 22.1716 12.5 23C12.5 23.8284 13.1716 24.5 14 24.5H15.5H16H18H18.5H27.5H28H30ZM29.5 25.5H28.5V28C28.5 28.2761 28.7239 28.5 29 28.5C29.2761 28.5 29.5 28.2761 29.5 28V25.5ZM27.5 28C27.5 28.1753 27.5301 28.3436 27.5854 28.5H18.4146C18.4699 28.3436 18.5 28.1753 18.5 28V25.5H27.5V28ZM17.5 25.5V28C17.5 28.2761 17.2761 28.5 17 28.5C16.7239 28.5 16.5 28.2761 16.5 28V25.5H17.5ZM9 31.5002C8.72386 31.5002 8.5 31.724 8.5 32.0002C8.5 32.2763 8.72386 32.5002 9 32.5002C9.52433 32.5002 9.88718 32.5583 10.1631 32.6372C10.4388 32.716 10.647 32.8205 10.8736 32.9413L10.9384 32.976L10.9384 32.976L10.9384 32.9761C11.1471 33.088 11.3908 33.2189 11.6889 33.3183C12.0268 33.4309 12.4206 33.5002 12.9367 33.5002C13.9946 33.5002 14.5517 33.2067 15.0423 32.9391L15.0635 32.9276C15.4896 32.695 15.8466 32.5002 16.5959 32.5002C17.3636 32.5002 17.7684 32.706 18.2246 32.9436L18.2472 32.9554C18.7361 33.2102 19.2925 33.5002 20.2477 33.5002C21.2058 33.5002 21.8512 33.2097 22.403 32.9538L22.4285 32.9419C22.9612 32.6948 23.3806 32.5002 23.997 32.5002C24.6214 32.5002 25.0895 32.7 25.6742 32.9496L25.6988 32.9601C26.2917 33.2131 26.9813 33.5002 27.9337 33.5002C28.8754 33.5002 29.4298 33.2181 29.921 32.9681L29.9645 32.946C30.4283 32.7103 30.8607 32.5002 31.6829 32.5002C32.4859 32.5002 32.9661 32.6961 33.5446 32.9322L33.621 32.9633C34.2626 33.2244 34.9931 33.5002 36.2195 33.5002C36.8236 33.5002 37.2752 33.4336 37.6448 33.3229C38.0165 33.2116 38.2824 33.062 38.5049 32.9312L38.559 32.8994C38.7559 32.7833 38.9035 32.6963 39.0971 32.628C39.3007 32.5562 39.5738 32.5002 40 32.5002C40.2761 32.5002 40.5 32.2763 40.5 32.0002C40.5 31.724 40.2761 31.5002 40 31.5002C39.481 31.5002 39.0926 31.5692 38.7645 31.6849C38.4745 31.7872 38.246 31.9225 38.0568 32.0345L38.0567 32.0345L37.9981 32.0691C37.7953 32.1884 37.6123 32.2888 37.3579 32.3649C37.1013 32.4418 36.7496 32.5002 36.2195 32.5002C35.1777 32.5002 34.5849 32.2759 33.9979 32.0371L33.9085 32.0006C33.3193 31.7597 32.6843 31.5002 31.6829 31.5002C30.6305 31.5002 30.0319 31.79 29.5115 32.0544L29.4785 32.0712C29.0121 32.3084 28.6348 32.5002 27.9337 32.5002C27.1989 32.5002 26.67 32.2873 26.0913 32.0403L26.0219 32.0106C25.4633 31.7717 24.8289 31.5002 23.997 31.5002C23.1572 31.5002 22.5626 31.7767 22.0444 32.0177L21.9823 32.0466C21.4562 32.2906 20.9769 32.5002 20.2477 32.5002C19.5377 32.5002 19.1595 32.3031 18.7005 32.064L18.6866 32.0567C18.183 31.7944 17.6055 31.5002 16.5959 31.5002C15.5918 31.5002 15.0565 31.7922 14.5795 32.0525L14.5634 32.0612C14.1374 32.2936 13.7535 32.5002 12.9367 32.5002C12.5155 32.5002 12.2298 32.4445 12.0052 32.3696C11.7919 32.2985 11.621 32.2071 11.4047 32.0913L11.3443 32.059C11.1022 31.9299 10.8184 31.7844 10.4379 31.6757C10.0577 31.567 9.60044 31.5002 9 31.5002ZM9 34.5002C8.72386 34.5002 8.5 34.724 8.5 35.0002C8.5 35.2763 8.72386 35.5002 9 35.5002C9.52433 35.5002 9.88718 35.5583 10.1631 35.6372C10.4388 35.716 10.647 35.8205 10.8736 35.9413L10.9384 35.976L10.9384 35.976L10.9384 35.9761C11.1471 36.088 11.3908 36.2189 11.6889 36.3183C12.0268 36.4309 12.4206 36.5002 12.9367 36.5002C13.9946 36.5002 14.5517 36.2067 15.0423 35.9391L15.0635 35.9276C15.4896 35.695 15.8466 35.5002 16.5959 35.5002C17.3636 35.5002 17.7684 35.706 18.2246 35.9436L18.2472 35.9554C18.7361 36.2102 19.2925 36.5002 20.2477 36.5002C21.2058 36.5002 21.8512 36.2097 22.403 35.9538L22.4285 35.9419C22.9612 35.6948 23.3806 35.5002 23.997 35.5002C24.6214 35.5002 25.0895 35.7 25.6742 35.9496L25.6988 35.9601C26.2917 36.2131 26.9813 36.5002 27.9337 36.5002C28.8754 36.5002 29.4298 36.2181 29.921 35.9681L29.9645 35.946C30.4283 35.7103 30.8607 35.5002 31.6829 35.5002C32.4859 35.5002 32.9661 35.6961 33.5446 35.9322L33.621 35.9633C34.2626 36.2244 34.9931 36.5002 36.2195 36.5002C36.8236 36.5002 37.2752 36.4336 37.6448 36.3229C38.0165 36.2116 38.2824 36.062 38.5049 35.9312L38.559 35.8994C38.7559 35.7833 38.9035 35.6963 39.0971 35.628C39.3007 35.5562 39.5738 35.5002 40 35.5002C40.2761 35.5002 40.5 35.2763 40.5 35.0002C40.5 34.724 40.2761 34.5002 40 34.5002C39.481 34.5002 39.0926 34.5692 38.7645 34.6849C38.4745 34.7872 38.246 34.9225 38.0568 35.0345L38.0567 35.0345L37.9981 35.0691C37.7953 35.1884 37.6123 35.2888 37.3579 35.3649C37.1013 35.4418 36.7496 35.5002 36.2195 35.5002C35.1777 35.5002 34.5849 35.2759 33.9979 35.0371L33.9085 35.0006C33.3193 34.7597 32.6843 34.5002 31.6829 34.5002C30.6305 34.5002 30.0319 34.79 29.5115 35.0544L29.4785 35.0712C29.0121 35.3084 28.6348 35.5002 27.9337 35.5002C27.1989 35.5002 26.67 35.2873 26.0913 35.0403L26.0219 35.0106C25.4633 34.7717 24.8289 34.5002 23.997 34.5002C23.1572 34.5002 22.5626 34.7767 22.0444 35.0177L21.9823 35.0466C21.4562 35.2906 20.9769 35.5002 20.2477 35.5002C19.5377 35.5002 19.1595 35.3031 18.7005 35.064L18.6866 35.0567C18.183 34.7944 17.6055 34.5002 16.5959 34.5002C15.5918 34.5002 15.0565 34.7922 14.5795 35.0525L14.5634 35.0612C14.1374 35.2936 13.7535 35.5002 12.9367 35.5002C12.5155 35.5002 12.2298 35.4445 12.0052 35.3696C11.7919 35.2985 11.621 35.2071 11.4047 35.0913L11.3443 35.059C11.1022 34.9299 10.8184 34.7844 10.4379 34.6757C10.0577 34.567 9.60044 34.5002 9 34.5002Z" fill="#504B43"/>
</g>
<defs>
<clipPath id="clip0_857_2650">
<rect width="24" height="24" fill="white" transform="translate(11 13)"/>
</clipPath>
</defs>
</svg>
