<svg width="47" height="75" viewBox="0 0 47 75" fill="none" xmlns="http://www.w3.org/2000/svg">
<path d="M23.6093 3.15772e-06C35.851 3.15772e-06 46.6937 7.73114 46.6937 22.4906C46.6937 25.583 45.0614 30.1046 44.2453 31.9788L23.6093 74.5L2.97299 31.9788C2.15688 30.1046 0.524651 25.583 0.524651 22.4906C0.524651 7.73113 11.3676 3.15772e-06 23.6093 3.15772e-06Z" fill="#FFFFF6"/>
<g clip-path="url(#clip0_857_2650)">
<path fill-rule="evenodd" clip-rule="evenodd" d="M34 25C34 31.0751 29.0751 36 23 36C16.9249 36 12 31.0751 12 25C12 18.9249 16.9249 14 23 14C29.0751 14 34 18.9249 34 25ZM35 25C35 31.6274 29.6274 37 23 37C16.3726 37 11 31.6274 11 25C11 18.3726 16.3726 13 23 13C29.6274 13 35 18.3726 35 25ZM31 25C31 29.4183 27.4183 33 23 33C18.5817 33 15 29.4183 15 25C15 20.5817 18.5817 17 23 17C27.4183 17 31 20.5817 31 25ZM32 25C32 29.9706 27.9706 34 23 34C18.0294 34 14 29.9706 14 25C14 20.0294 18.0294 16 23 16C27.9706 16 32 20.0294 32 25ZM23 26C23.5523 26 24 25.5523 24 25C24 24.4477 23.5523 24 23 24C22.4477 24 22 24.4477 22 25C22 25.5523 22.4477 26 23 26ZM23 27C24.1046 27 25 26.1046 25 25C25 23.8954 24.1046 23 23 23C21.8954 23 21 23.8954 21 25C21 26.1046 21.8954 27 23 27ZM23 30C22.3133 30 21.8335 29.9328 21.5229 29.8592C21.5673 29.8075 21.6111 29.7558 21.6535 29.7059L21.6538 29.7055L21.6539 29.7054L21.7222 29.625C21.9002 29.4161 22.0812 29.208 22.2696 29.0196C22.4605 28.8287 22.632 28.6858 22.7804 28.5948C22.9317 28.502 22.9993 28.5 23 28.5C23.0007 28.5 23.0683 28.502 23.2196 28.5948C23.368 28.6858 23.5395 28.8287 23.7304 29.0196C23.9188 29.208 24.0999 29.4161 24.2778 29.625L24.3461 29.7054C24.3886 29.7555 24.4326 29.8074 24.4771 29.8592C24.1665 29.9328 23.6868 30 23 30ZM21.1253 29.725L21.1242 29.7243C21.1241 29.7244 21.1246 29.7247 21.1257 29.7254L21.1291 29.7273L21.1253 29.725ZM24.8759 29.7243C24.8759 29.7244 24.8743 29.7254 24.8709 29.7273C24.8741 29.7253 24.8758 29.7243 24.8759 29.7243ZM20.5 30.5C20.6667 30.6667 21.4 31 23 31C24.6 31 25.3333 30.6667 25.5 30.5C25.6667 30.3333 25.9 29.9 25.5 29.5C25.3924 29.3924 25.2616 29.2384 25.1126 29.0631C24.5695 28.4237 23.7847 27.5 23 27.5C22.2153 27.5 21.4305 28.4237 20.8874 29.063C20.7385 29.2384 20.6077 29.3924 20.5 29.5C20.1 29.9 20.3334 30.3333 20.5 30.5ZM17.4881 24.9545C17.5215 25.2719 17.6168 25.7469 17.8441 26.3949C18.0714 27.0429 18.2936 27.4735 18.4659 27.7422C18.5 27.6831 18.5343 27.6245 18.5675 27.5679L18.5676 27.5677L18.6209 27.4766C18.7591 27.2396 18.8956 26.9998 19.011 26.7597C19.1279 26.5163 19.2061 26.3072 19.2428 26.1371C19.2803 25.9636 19.2598 25.8991 19.2596 25.8985C19.2593 25.8978 19.2351 25.8347 19.0975 25.7226C18.9625 25.6126 18.7708 25.4982 18.5275 25.3812C18.2874 25.2658 18.0311 25.1638 17.7751 25.065L17.6766 25.0272C17.6153 25.0037 17.5518 24.9793 17.4881 24.9545ZM17.4834 24.5335C17.4835 24.5336 17.4831 24.5355 17.4822 24.5392L17.483 24.5351C17.4832 24.534 17.4834 24.5335 17.4834 24.5335ZM18.7251 28.0738C18.7251 28.0738 18.7247 28.0736 18.7239 28.0729L18.7206 28.0701C18.7236 28.0724 18.7251 28.0737 18.7251 28.0738ZM16.9005 26.7259C16.3709 25.2161 16.4428 24.4137 16.5449 24.2013C16.647 23.9889 16.9787 23.6253 17.4885 23.8703C17.6257 23.9363 17.8143 24.0087 18.029 24.0913L18.0291 24.0913C18.8121 24.3922 19.9435 24.827 20.2032 25.5675C20.4629 26.308 19.851 27.3543 19.4274 28.0784C19.3113 28.277 19.2093 28.4513 19.1433 28.5885C18.8983 29.0984 18.4121 29.0216 18.1997 28.9195C17.9873 28.8174 17.43 28.2357 16.9005 26.7259ZM28.3591 26.3949C28.5864 25.7469 28.6817 25.2719 28.7151 24.9545C28.6515 24.9793 28.5879 25.0037 28.5266 25.0272L28.4282 25.065C28.1722 25.1638 27.9158 25.2658 27.6757 25.3812C27.4324 25.4982 27.2407 25.6126 27.1058 25.7226C26.9682 25.8347 26.9439 25.8978 26.9436 25.8985C26.9434 25.8991 26.923 25.9636 26.9604 26.1371C26.9971 26.3072 27.0753 26.5163 27.1922 26.7597C27.3077 26.9998 27.4441 27.2396 27.5824 27.4766L27.6356 27.5677L27.6356 27.5677L27.636 27.5683C27.6691 27.6248 27.7033 27.6833 27.7374 27.7422C27.9096 27.4735 28.1318 27.0429 28.3591 26.3949ZM28.7198 24.5335C28.7198 24.5336 28.7201 24.5355 28.721 24.5392C28.7203 24.5353 28.7199 24.5335 28.7198 24.5335ZM27.4782 28.0738C27.4782 28.0739 27.4796 28.0727 27.4826 28.0701C27.4796 28.0724 27.4782 28.0737 27.4782 28.0738ZM29.6583 24.2013C29.7604 24.4137 29.8323 25.2161 29.3027 26.7259C28.7732 28.2357 28.216 28.8174 28.0035 28.9195C27.7911 29.0216 27.305 29.0984 27.0599 28.5885C26.9939 28.4513 26.892 28.277 26.7758 28.0784C26.3522 27.3543 25.7403 26.308 26 25.5675C26.2597 24.827 27.3911 24.3922 28.1741 24.0913C28.3889 24.0087 28.5775 23.9363 28.7147 23.8703C29.2245 23.6253 29.5562 23.9889 29.6583 24.2013ZM20.9718 19.6705C20.6848 19.8101 20.2708 20.0619 19.7392 20.4966C19.2076 20.9313 18.8788 21.2871 18.685 21.5407C18.7522 21.5527 18.8191 21.5649 18.8837 21.5768L18.9875 21.5958C19.2575 21.6448 19.5294 21.6913 19.7945 21.7179C20.0631 21.7448 20.2864 21.7469 20.4588 21.7234C20.6347 21.6994 20.6883 21.6582 20.6889 21.6577C20.6894 21.6573 20.7404 21.6129 20.7989 21.4453C20.8562 21.2809 20.8984 21.0617 20.9253 20.7931C20.9518 20.528 20.9603 20.2523 20.9658 19.9779L20.9677 19.8724C20.9689 19.8068 20.9702 19.7388 20.9718 19.6705ZM21.3658 19.5224L21.3651 19.5226L21.3601 19.5233C21.3624 19.5229 21.364 19.5226 21.3649 19.5225C21.3655 19.5224 21.3658 19.5224 21.3658 19.5224ZM18.4617 21.8975C18.4616 21.8975 18.4622 21.8958 18.4636 21.8921C18.4625 21.8957 18.4618 21.8975 18.4617 21.8975ZM19.1061 19.7225C20.3447 18.7096 21.1234 18.5034 21.3579 18.5269C21.5924 18.5504 22.0474 18.7381 21.991 19.301C21.9758 19.4524 21.972 19.6544 21.9677 19.8845C21.9521 20.7232 21.9294 21.935 21.3219 22.4318C20.7145 22.9286 19.5222 22.7104 18.6971 22.5593L18.697 22.5593L18.6969 22.5593C18.4706 22.5179 18.272 22.4815 18.1206 22.4663C17.5577 22.4099 17.464 21.9268 17.4875 21.6922C17.511 21.4577 17.8676 20.7354 19.1061 19.7225ZM26.6889 20.4966C26.1573 20.0619 25.7433 19.8101 25.4563 19.6705C25.4579 19.7388 25.4592 19.8068 25.4604 19.8724L25.4623 19.9779C25.4678 20.2523 25.4763 20.528 25.5028 20.7931C25.5297 21.0617 25.5719 21.2809 25.6292 21.4453C25.6877 21.6129 25.7387 21.6573 25.7392 21.6577C25.7398 21.6582 25.7934 21.6994 25.9693 21.7234C26.1417 21.7469 26.365 21.7448 26.6336 21.7179C26.8987 21.6913 27.1706 21.6448 27.4406 21.5958L27.5444 21.5768C27.609 21.5649 27.6759 21.5527 27.7431 21.5407C27.5493 21.2871 27.2205 20.9313 26.6889 20.4966ZM25.0634 19.5227C25.0627 19.5225 25.0623 19.5225 25.0623 19.5224C25.0623 19.5224 25.0629 19.5225 25.0644 19.5227C25.0653 19.5228 25.0665 19.523 25.068 19.5233C25.0659 19.523 25.0643 19.5228 25.0634 19.5227ZM27.9664 21.8975C27.9665 21.8975 27.9659 21.8958 27.9645 21.8921C27.9656 21.8957 27.9663 21.8975 27.9664 21.8975ZM25.0702 18.5269C25.3047 18.5034 26.0834 18.7096 27.322 19.7225C28.5605 20.7354 28.9171 21.4577 28.9406 21.6922C28.9641 21.9268 28.8704 22.4099 28.3075 22.4663C28.1561 22.4815 27.9574 22.5179 27.7311 22.5593L27.731 22.5593C26.9059 22.7104 25.7136 22.9286 25.1062 22.4318C24.4987 21.935 24.476 20.7232 24.4604 19.8845C24.4561 19.6544 24.4523 19.4524 24.4371 19.301C24.3807 18.7381 24.8357 18.5504 25.0702 18.5269Z" fill="#504B43"/>
</g>
<defs>
<clipPath id="clip0_857_2650">
<rect width="24" height="24" fill="white" transform="translate(11 13)"/>
</clipPath>
</defs>
</svg>
